<mxfile host="app.diagrams.net" agent="Mozilla/5.0 (Windows NT 10.0; Win64; x64) AppleWebKit/537.36 (KHTML, like Gecko) Chrome/133.0.0.0 Safari/537.36 Edg/133.0.0.0" version="26.0.16">
  <diagram name="Page-1" id="NGVe2dAC_861yqqYPOhP">
    <mxGraphModel dx="2100" dy="1316" grid="1" gridSize="10" guides="1" tooltips="1" connect="1" arrows="1" fold="1" page="1" pageScale="1" pageWidth="1600" pageHeight="900" math="0" shadow="0">
      <root>
        <mxCell id="0" />
        <mxCell id="1" parent="0" />
        <mxCell id="rBXzSqOysGV7hs85Uvvw-1" value="" style="shape=image;verticalLabelPosition=bottom;labelBackgroundColor=default;verticalAlign=top;aspect=fixed;imageAspect=0;image=data:image/png,iVBORw0KGgoAAAANSUhEUgAAAi8AAAIwCAYAAABOVIsKAAAAAXNSR0IArs4c6QAAAARnQU1BAACxjwv8YQUAAAAJcEhZcwAADsMAAA7DAcdvqGQAAOH9SURBVHhe7J13eBzltf+/s72o9y7bsi33XuSGwWBsYwgYAoEEUoAQSspN+HHvzU1CclNvbtolpJCEUAIkQEIMxAZs494ky7JsuXdbsqzetautM78/ZmfL7Gzv0vk8zzwz73nPbJ2d893zNqaiooIDQRAEQRBEiiATGwiCIAiCIJIZEi8EQRAEQaQUjHuz0fXr18Fx3q1IUjZ3AtULBOtHEARBEERqwzCM2ORFIB+peoZhPMVLa2srXn1VA5mMAcMAMkdeRiYDhPPdjxnG+5gv80ZPm8vPfe/vOBmw273fg7sGE46l9vwx5zz2rnMdCxvL8naWFcocHnzQAL2ehB9BEEQ8MRgYvP66nmKiG8kQEz/3OZO3eHntNS3y85Ps0xrDdHVx+PSnh0m8EARBxBmDgcFf/5pGMTGJ6Ori8NBDI959XpJN5Y11BKVPEARBxB+6BycXgkbx+lroi0ouSEwSBEEkDroHJxfOpjtxBZFckJgkCIJIHHQPTk48vhaO40hlJhn0fRAEQSQOugcnFwzDaxUvTUkqM7mQy8UWgiAIIl7QPTi5oGajFIFUP0EQROKge3By4iVe6ItKLuj7IAiCSBx0D04uaLRRikDfB0EQROKge3ByQc1GKYLU1MgEQRBEfKB7cHLiJV7oe0ouSPUTBEEkDroHJxc+m41IvCQX9H0QBEEkDroHJxeS4oVWfSYIgiAIIpnhOM5zYcaWlha8954eWm1spGZTkx0//akJNhsHm41fndJm4+sUCn48vUIBKBQM/uM/NJg1iwbY22zAunVDtDAjQRBEnDEYGHz4YToUCnHN2CNZ4vfICIc77zTER7x0dLB4/HEjjEYGJSUlkAVoRGRZFtevX4dOx+GFF3QoLPTvP5oh8UIQBJEYSLwkX/wWxIvXo0a7fa+pyY5HHzVCry9AWVlZwDcOADKZDGVlZdDrC/Doo0Y0NdnFLmMGaskjCIJIHGP5HpyM8Vuyz4t7RaR0dLDYsGEYzzxjQk5OMdRqtdglIGq1Gjk5xXjmGRM2bBhGRwcrdhn1sGPvLRMEQSQNY/EenMzx26d4ASJXLx0drIdaU0SQc1MoFB4qLlofQKpAnagJgiASx1i7Byd//OY1ipd4iUbm5fHHjcjMLAhLrflCrVYjM7MAjz9uFFeNasai6icIgkgWxto9ONnjt5/MS2Q0NdlhNDJRfeMCarUaRiMT9Ta0ZGaMiX6CIIikYizdg1MpfnuJl0gyLx0dLL71rREUFRWJq6JGUVERvvWtkSiln5KfsfTDIQiCSDbGyj04VeK3z8xLJOLlK18xQq/PiaiNLBAKhQLp6Xl46qnI00+pgD06IpUgCIIIg7FyD37qKSPS0/NiHr/1+hx85Svhx2+f4iVcbDZgcJCLSbpJjEajwdAQB7N59EvisaL6CYIgkpGxcA82mzkMDXHQaDTiqqijVqsxOMhPdBcJUVseoKeHBcBALo/NrHru8Kt8ytDQMPol8VjrLEYQBJFMjIV7MB9LZXFZQZvXCIxDM4QHx3HemZdwX/vJk/F78wCQnZ2NX/7SJDaPOiLQkwRBEESEjIV78C9/aUJ2drbYHBOE5AOvGUIn6s1Gf/qTGcXFxWJzzFCr1Rgaijz1lOyMBdVPEASRrIz2e7DNBgwNxafLh0BxcTH+9Cez2BwSHmsbNTc3Y8uWdAQxA7AXn/zkMDIzy8XmmMFxHK5du4bXXtNBJmPAMHC+bpnMTZ25HTOM9zFf5o2eNulzBAQ17m/PH3POY+8617GwCT8UlhXKHB580EBrGxEEQcQZg4HB66/rR32MeeghI8rKyuLWcgIAAwMt+Mc/0sTmgLAssGbNUPTEy913DyM7O37iBQCuX78u2U9HyuZOoHqBYP2I5CLZhZ7BEL8bBBF/6PojYkUw4iKQj1Q9w/CLLsaTvr4W/POfSSBe4p15IZIXf6LPvU7q2J/NfS8+dreNjIzAbDYnXRAxGPjJn7RaLeC4Ybhvgi2Uvb9jqbIv22iCrj9p6PojkomoZ162bk33SF0FywMPDEOjKQ1q1UmCiDVmsxk9PT1Qq63iqrgjBI2srKy4tisTicNsNqO/vz9pRIzZrERubi5df0RSwLIsTKZW/O1voYsXjgNuvXUoeh12v/hFNdra2sRmgkgIarUaBQUFMJuV4qq4YjTmoaysDIWFhRQ4xhBqtRqFhYUoKytLeDON2axEQUF016ohiEhoa2vDF78Y2fUYNfEyfbocAOs3ZUsQ8UShUCA7OzuhwYNh+igbOYaRyWQJFQ1GYx6ys7NjOmsqQYQCrxFYh2YIH6+7arjaIzdXBoCDfazMpUykBBqNJmFt7AyTHvdOcETyodPpEiige+MyaypBBAuvETiHZggdQaOEd7YECgWQkcHAbI5s7DZBRBOGYRJ287ZarZR1IeIy67gv3DvjEkQyYDabkZHBINJkoNedNZJ77fPP62Aw9MI22meOI1IKvV6fkH++NpuNmlGJhAlYm01DmT8iqbDZbDAYevH88zpxVdA459oRV0RCYaEMP/qRFu3t7eIqghhzsCwLdrRPz0kkLWazGVZr4kfbEYRAe3s7fvQjLQoLI5cekT+CiFmz5PjsZ5XUfEQkDQZDYmYo5jiOspBEwgSsXs9hcHBQbCaIhMCyLB54QIFZs6LTjBp18QIAn/mMCsuX99GNm0g4HMfBZErcAp6JfG4iOUhk9sNkMlHTJZFwbDYb5s3rwLp10Zu6IibiBQAef1yNpUu7KQNDJJRE3rz1eg4DAwMYGBgQVxFjhMHBwYRl/pAE4p0gzGYzFizown33qaLSXCQQvUeS4EtfUmPt2n5cu3aNsjBE3LHZbOjr60tY4AAJmDHN4OAghoeHEzrLs17Poa+PsuBE/LHZbLh27Rpuvrkv6sIFsRYvAPDggyr87Gca9Pa2YXh4GBaLJWFtwMTYgOM4jIyMoLOzM6GBQ4Bhcp0CJlFZICJ+cBzf12R4eDgpRINabUVnZydGRkbo+iNiCsuysFgsGB4eRm9vG372Mw2+8AV11IULAO+1jbZtS/f0iBIdHSy++lUjDAYOLMvAZuOHEObl5SV0Bkpi9MCyrNtK4znQ6brFLgnFYODn3NBoNM5rXpiHw30+jlD3/o6lyr5sRGTQ9ed9LFX2ZSNSE7PZjO7ubrAsC4UCkMk46PUMfv1rXUxECwCsXi2xMGOsxIsAywLDwxw6OzmcPWvHSy+ZYTTKw5qPwHWj8ETK5k6geoFg/YjkgGFyky5g+CIR884QsYWuPyLWBCP6AvlI1TMME3YM1unsePhhNaqr5SgoYJCWxkQ0X1wwJES8iPnrXy34y19sKC0tFVcFpLW1FRpN9NKy/Oq/DObPl2PqVDnS0hikpwsboFTyX7rVymFoCBga4jA0xGF4mEN7O4uzZ+3o7OTLLMu3NxMEQRCEwcAH9bQ0BgUFDKqr5SgqkoUUZ06ftqOhwQ6zmYtqfDGZFGHH4IceUuAzn1GJq2JKUoiXv//dgj//ObHixWBgMGuWHPfco8L8+XKo1d7KNBjEWaUdO6xoarJH9SIjCIIgUgchvqxapYxKdsJs5tDQYMc771iiFl8iES+PPKLAvffGX7yE+fFFD5UqPKEQDQwGBlVVCvziFzr84hc6LF2qCFu4wDFtcUYGg4kTZVi/Xul83KoqBaVpCYIgxhDi+LJ+vRITJ8qQkRG+cAEAtZrB0qWux010fElUDI/gI4wOkS7OFA7iiypaM/5JMWuWPGkuMoIgCCK2jLX4kogYjmQQL8roTbgXFGlpri87lheVGOEi+8IX1Am5wAiCIIjYkpYmxyOPqBMWX37xCx3S0uL3vEhADBdIuHhRKMIf1RPKeS41rI3rRSXm059WkYAhCIIYZaSlyXHffSrcf398+3+4w4sYbchZmFBiqTscx43dzItCEfwHHC5paXI89hivhmM17jwUSMAQBEGMHtLS5Pjc51T4xCcSlIZwo7BQFtcsfzxiuBQJj+SxVm3CRRXv3tCBIAFDEASR+gh/jlevTrxwcSdeMSbWMdwXo1q8pKXJ8eSTyXdRCcTr4iIIgiCiT1qaHF/+sho33BDDQBYB8YgxsYzh/ki4eJHHqPtJSYkC3/iGGkuXJuiTDRL3i8tozBNXEwRBEEmGwcAgN1eOf/s3NWpqUifGxIJYxfBAJFy8xKK9zGjMw5e+pMa8ecl9UQkIFxfH9YirCIIgiCRjyhQ5vvxlDRYsSK0YEwsBE4sYHgwJFy+RTNbji5kz+zF7doLkYJjE8uIiCIIgooPRmIdHH1Vj7tzUizGxGGkbixgeDAl6WhfRTjmlpcnx7/+uEZtTglhdXARBEER0SMU/xwL//u+aqM8DE+0YHixJIV4iGWPujtGYh3//d01Uh0OzLDA4yOHCBRabN1tx773DuPfeYWzebMWFCywGB/lFGKNFLC4ugiAIInKi/ec43vGlsFCGf/93jVeGXxxLg4XjuISJl4QvzHj+vB1PPTWC8vJycVVAWlpaoNO5vlm5XIZ33knz8AmXjg4WX/2qEQYDB5ZlYLMBMpkMxcXFAIC2tjawLAuFApDJOOj1DH796+jMI9PUZMfTTxujsuAWQRAEETlGYx5+/vORqGTHExlfAODpp424eNG1qLHRKAs7Bv/2t1pMmhT5ZxIKSbEwo1wenT4eRmMevvtdrdgcFk1Ndjz6qBFANrKzi1BYWIry8nKUlpZCJpNBJpOhtJS3FRaWIju7CEA2Hn3UiKYmu/jhQmbWLHlUfiAEQRBEdEhP743KfTnR8QUAPve56PWvjFYMD5UkEC9iS3hE68J64w0LnnnGhJycYqSlpUGlUkHmp0eSTCaDSqVCWloacnKK8cwzJrz8slnsFjLRvLgIgiCI8InGn+OODhavvZYc8SWaf5CjFcNDxfenFiei8caNxjw8/XTk7ZAvv2zGe+/pUFZWBkUYM+8oFAqUlZVh+/ZsPP+8SVwdEtG8uAiCIIjwifTPcUcHi3fftWLLlqyI48uHH+rxpz9FLmDuuUcVlT/I0Yjh4ZBw8eJHdAaNStWL+fMj+wR//3sztm7NQHp65H1+1Go1Dh/Oj1jArF+vjMrFRRAEQYSH0ZiHp55Si81B09HBYuNGKw4cyINaHf7jCKSnp2PHjgw891xk8WX+fDnU6sjjSzRieDgk6GldROONR/ol/PznFuzblwWdTieuChuFQoG6upyIUnzTp8sTNvUyQRAEAcjlPZg+Pfw/xx9/bMO+fdlhZVt8odPpcOhQNv7nf8KPL2o1E/GffkQphodDgp7WRaRv3GBgsGhR+BfFG29Y0NiYCY0m8mYnMWq1Gm++aQu7k1Vurgy5uRF+QARBEETYyGT8vTgcmprs+MtfrFHJuIjRaDQ4cSI7oj/IixYpIs7uRxrDwyVBT+tCJov8g6uuDk89ChdWLISLQFFREb71rRF0dIQ+WF+h4LMvBEEQRGLQ65mwMuAdHSy+9a0RFBUViauiRqR/kKur5RGLj0hjeLhE+LIjJ9IPLi2NQUFBeB/e978/gtzcXLE5qigUCuj1OfjKV4ziqqAYP14WsTImCIIgQue229R48UW92BwUX/mKEXp9TlSbi6TIzc3F978/IjYHRUEBg7S0yOJLpDE8XLyeNsyJ9sIm0jce7odvNnMYGuJimnURUKvVGBzkYHPNCRQ0en3o740gCIKInIEBDhkZod+DbTZ+5txYNBeJ0Wg0GBriYDaHHrwj+fMvEGkMDxVBo8T5ab1RKCKbmjjctFdDgx2ADAwT2RcXDHK5HACDnp7Qm47S02P/+giCIAhvBgfDi038vZ5x3PtjCx/DZI6YFhpCt4tIYnCME0s+CSPsR5dwhIc75eXhPcBvfmNCSUmJ2BwThIvr5MnQLy59eBlLgiAIIkLCFS/8vT4+f44BoKSkBL/5TXhDp8ONoQKRxvBwSdDTuoj0jefnh/cAViv8zmwYbYqLi/HHP4beK5yajQiCIBLD4CAXVleKP/7R7FynKB7IZDJYrWJrcIQbQwXiGEY98HracL6oSIhUmIbTHglHm2Q8Cffi0mjCe38EQRBEZBgMHOyhJ8zj/ucYEcS0cGOoQKQxPFSSps9LohZ1iuYy47EkDk2mBEEQhAQmE2C1xvkffZgkKqYlKoZ7iZd4Z14iDc7htknGWRSDZVkolWJrYMJR/QRBEETkWK0cTGF0JVEq+Xt+PAk3poUbQwUijeGhkjSZl0jFUldXeBdIvHtIt7W14bHHQh82ZzJF+AERBEEQYWG3801HofLYY2q0tbWJzTEl3JgWbgwViDSGh4uXeEnUCwmX1tbwPvh4KmN+GBob1my54fxwCIIgiMjhuPAyE/y9ng17CHKohJvZRwQxNFGMmszL1avhffBf/rIG169fF5tjgt1uB8CFtT6GwSC2EARBEPEiHPHC3+s5x70/9ly/fh1f/nJ4E66GG0MFIo3h4RJ6NI0ykb7xtjY2rJkF+dU046OMzWYzMjLCWx9jaCj2r48gCIKQJhzxolDwo3jM5tCnxwgVIbMfzgrRZjOHtrZRIl7i/UIifb7BQX4LFbWaQXo6A1M4vbFCpK+vD9/+tlZsDgpqNiIIgkgcAwPh3YO//W0t+vr6xOaoYzKZkJ7OQK0OfdRPuPHTnUhjeKgkTbNRpESiHH/7Wx2GhrphC3eAfBCYzWbodBxmzQpdFQPA6dN26PVxvjoIgiAI6PUcTpwIr+ln1iw5dDouptkXm82GoaFu/Pa3OnFVUITbcpEMeImXRKmoSAi3za6wUIYf/UiL9vZ2cVVUsNlsGBjoxAsvhHdhmc1cWOtVEARBENGhocEedoB/4QUdBgY6Y/YHub29HT/6kRaFhV6hPCjCjZ3uRCOGh4LPzEuiXki46PUcdu0KY+paB7FUx5FeWJH8aAiCIIjIieRPZCz/IEea1QeAXbusEWf2I43hoeJTvABxfiVReL6mJjuamsK7uOCmjqMpYFiWjfjC2rIl8guLIAiCCB+9nsOWLZH/QY7m1BxmszmirD6iEDddxDtG8c8nIV5SD72ew6uvhi88CgtlePFFHQyGTly7di2iFJ/NZsO1a9fQ398a0YUVidonCIIgokekWfAXXtChv781avHFYOjEiy/qws7qA8Crr5pT+s+x1ztPVAooUiJVkYWFMmzcmIaf/UyD3t62kLMwHMdhZGQEvb1t+NnPNNi4MS2iCyvSHwtBEAQRHSL9MymOLyMjIyFP02E2m6MWXyKNl+6E+DYixmezUaJeSKREmn0RmDVL7pGFCZTqY1kW165dQ2trCyyWbrz4oi6ipiKBd96xpLQqJgiCGC3o9RzeecciNoeMEF8slm60traEFGOEbEs04ks0sy7RiuHBMurEC6KoJt1VstnciuHhFvT1taCrqwXt7c3o6uLLw8MtMJtb8d3vqvH++2n4xz8iU8MC0XofBEEQRHSI1n25sFCGf/wjDe+/n4bvflcdVIyJRrZFIFrvQyCaMTwYhOdjKioqnE/d3NyM995Lg04X+mQ34WI0crjzzmFUVFSIqwLS3NzspR6rqhT4xS/C72uSaDo6WDz99AiGh6N3cREEQRCRk5Ymxy9+Ef4I0mTg6aeNuHjRs9+NwcCEHYMTpRm8voFEqaho0dRkxyuvRN58lCj+939NJFwIgiCSkOFhO/73f2M/K3us+OtfLVHNuiAGMTwQo7LZCI62yTfesKSkgInFhUUQBEFEj1T9g/zXv1rwwQfRn34j2jE8ED7Fy2ggFQVMrC4sgiAIInoI8SUaA0TihRBfRlNW30u8JEpFRZtUusBG44VFEAQxWtHrObz+emr8QY51fIlVDPeFz8xLol5ILEiFCyzWFxZBEAQRfVLhD3I84kssY7gUY0K8IMmbkOJxYREEQRCxIZn/IMcrvsQ6hovxKV5GIwyTm3QC5o034nNhEQRBELEjGf8gC/Glo8P/BHipjJd4CTDZX9SJx/PpdN1Jc4F1dLD4+c9NePXVNBIuBEEQowAhvvzsZyaMjMQ5FSHijTcs+PBD/o9xPAaAxCOGuyM8n5d4SVQKKB4IF9jTTxsTMiT5yhUW3/72CPbts0Cn6xZXEwRBECmKXs9h/34LvvpVI65ciXNEdwzhvuee4bj/MY5nDIe/ZqNEvZB4oddzuHjRhqefNuLpp41xSauZzRy2brXi298eQVdX/C6qZMdorIDBwEhuRmPosz0Gg7/n5J83W3xKVPD3vKPpOQlirNPVZcdXv2rEli3WuCyuy8/KbsT/+39a2O1s3P8YxzuGC8/ntTzA3/6Whry8+E31293N4YEHorc8QKikpcnx8MMqTJ8uR26uDAqF2CM8hFVIf/lLEwwGDnZ7btwvqmTHaCwCx3VgzZo1yMzMBAAMDAxgy5YtYJhC6HTt4lMixv05c3JykJWVBa1WC6vVir/85S8YGBiI+JqSQnje9evXIzs7GwUFBbDZbHj11VdH1XMSBMFjMDBQqxnMny/HmjVKzJ8vh1odndhqswE9PSxOnrTjpZcsEWdaDBEsD5AozeAlXv761zTk58fvhXR1cfj0pxMnXuD44hQKIDdXhunT5Vi8WB6ymHG/mH73OzMJliAwGnNQVJSHtrbz4iowTDZ0ul6xOWLcn5NhGCiVSgCASqXCF77wBTz//PNRuabEGI054Lg+Z1mhUECtVuORRx7Br3/961HznARBeOMuZFauVEQUX154gY8vLIuoxZhIxEuiNIOXeHn9dT1kMgYyGcAwCLDn/QDeJqRzWBbgOP7D5TihLL1nWQ4PPmgI+4OLxQ1YLGamTpWhqEiGggIZ8vIYpKfzXxTDAIODHB591BD1i2ksYDSmo6ioGG1t5/HSS3+HQqGEzWbFww/fC4ZJg043JD4lYnw95+OPfwZf/vKX8ctf/jIm15TRmA6OG/Z4zsceewBf/epXR9VzEgThn2SML5GIl0RpBi/xkijC/eDicQM2GFwXEwCkpzPIy2NQUMBfdNu2JXYEU6piNKYjPz8PnZ1X8Je/vIu0tHQMDw/hs5+9K6bipbCwEO3tFz2e89FH78MjjzyC3//+9zG5pgQhIX6fDz74IF5//fVR85wEQYRGMsSXSMRLovDqsKvXc3Hfkh3hdep0/Ga3s+josOP4cWtcLqzRixIWC79Cq81mxfDwEGw2q7MuNvAZCIie02q1or+/X+wcRfj3I36ffX2uZp3ok4jnJAgiFFI9vojjeTw2SHXYFSriSSSqLxGvl4gOQodSKWLZYTcrS4a+vjZxFdasWYMtW7bE5Jry917huAFEm0Q8J0EQqUeqxWCDgfHOvBBE/FCBYQrBMNlgmDTHlg2GKQSgEjtHCRX6+00AdAA8e8vxo5xyPWzRw/d7ZZhysXOUSMRzEgRBxB7KvBAEQRDEGCbVYjBlXgiCIAiCSDlIvBAEQRAEkVKQeCEIgiAIIqUg8UIQBEEQREpB4oUgCIIgiJSCxAtBEARBECkFiReCIAiCIFIKEi8EQRAEQaQUJF4IgiAIgkgpSLwQBEEQBJFSkHghCIIgCCKlIPFCEARBEERKQeKFIAiCIIiUgsQLQRAEQRApBYkXgiAIgiBSChIvBEEQBEGkFCReCIIgCIJIKUi8EARBEASRUpB4IQiCIAgipSDxQhAEQRBESkHihSAIgiCIlILEC0EQBEEQKQWJF4IgCIIgUgoSLwRBEARBpBQkXgiCIAiCSClIvBAEQRAEkVKQeCEIgiAIIqUg8UIQBEEQREpB4oUgCIIgiJSCxAtBEARBECkFiReCIAiCIFIKEi8EQRAEQaQUJF4IgiAIgkgpSLwQBEEQBJFSkHghCIIgCCKlIPFCEARBEERKQeKFIAiCIIiUImXFC8dxYhNBEARBEGGQajE1acRLqn1wBEEQBDFWSXTMThrxQhBEMmMHx/WAZRths/0RRmMeDAYm6htBEEQwMBUVFU751NzcDL0+/mrKYGBQXl4Ohgn+5sVxHFpaWhLyeglirOBPUNx1xzpkZmRgYHAQ7/7rQ9x26x0oLCjC3/7+Gmx2G8pKizFl0kSYzGbodVrIFQrY7XZYLAoYjAYMDXaht78fA4NDMJnMsNlsbo/OgGH0YJhJkMkWQqX6LzBMpVs9QRDRItVisMHAkHghCMIbtaoQff1a3LhiEkymflisFjQ0NondvCgpLsX8OdOQk50NAJDJZI6NgUwmA8BgZGQEdpaF1WKBxWoFy3Fg7SxMZhlGRozYX7tX/LBgmEosmHsHTp19XlxFEESEpFoMTmnxwrIsrl27lpDXSxCjEX9ZlmSjqLAAQ8MdYjNBEGFgMDAoKytz/MEIDhIvYX5wJF4IIrrMm/N1nL+wEQxkyMjIQGZGBjQaDbQaDTQaNTQaDTRqNdQaNdQqNVQqFVRKFVQqFZRKFZRKJZQKBeQKGRRyORQKGRQKBbRaNTQaFbQaFVRqJZQKOTiwsFmtMJnNGDGOYMQ0ArPZAqvFBpvdDrvdBpvVCqvdBqvFCovVDKvFgp/+32/w6Oc+jWFjDv71AWVhCCIapFoMNhgY6rBLEASPSmkSmyKCYRjIZTIwDN9kJJfLoVQooFQqoVbzYkir1UCn00Kv00Gv1yEtTY/0tDSkp6c7BVRmZgayMjOdN1ZGxkAmc+8fQxDEWIPEC0EQAACVKrriJdrI5PztSiaTQcaQeCGIsQyJF4IgAHBQKc1iY1IhYxzihREyL/FPVxMEkRykrHhJ9AQ5BDGaYBhAoUhy8eJsNpJBJrMhhP79BEEEINViatKIl1T74AhiNMEwdsjlyf0blMl4tSJjGMc8MHaxC0EQcSLRMTtpxAtBEImEAZjE3owCIUylwDCCcKHUC5E8GI0VMBqLYDTmwGhMd2w5DluF2J2IkJQVL4lWfQQxmpDJbNBq1GJz0sIw/GsmiOTBAo7rAMf1geOGHVufw9Yidk46Ui2mJo14SbUPjiBGE6nQAVa4R/B7jsQLkWRYAAAvvfR3/OUv7+Kll/4OAFizZo3Ib3SQ6JidNOKFIIjEIWNsSPC9KCAsy79A1vFCabg0kVxYAQAKhRJpaelQKJQAgMzMTJEfEQ2SZobdkpISKBQKcZVPrFYr2traEvJ6idiTSlPVR4NQlsaQ8g1kkz5mHCN2+P29G+7Ath2HojbDrlIph0qphFqjglarhs4x065SqQAjA+w2G8wWM0wjJphMJpgtFtisdtjtLOysHXabDTa7DVarFVarBQMDA/jB//4STzz6WZgtVvz17Y0OwcU59xD9IxT/OwxUFvBldycYn+iicLxH9+d1/95d36trE5cZx/cv1Mm86l02970MCsUIlMrDtECmD4zGdHDcMF566e9QKJSw2ax4+OF7cd999+Htt99O6lhlMDAoLi6GUskLrmCw2Wy4fv16Qt5XUi0PEOoHR+JldMJxV2GxPIAJE3px7txZLFmyzCPACjdd6WAcXFnAl92dYHxGC6WF2fh4Z33Sipe+/j786Gf/hy898hCsVhsut3SK38KoJBSRJOUbyCZ97BKEHAccPLgfK1aswIEDjVCrT5CAkcBozAHH9YnNWLNmDbZs2ZLUsSrVYnBKixeLxYL29vaEvF4idphMuaiqKkZ+fj7279+F22//hGN0iWeWQCxiPG3e9QKBymIC1Y8m5LBgx67DSSteenp68JNf/hpf/MJnYLezMCT3tDRRQ0p8SCH28yVK+DJ/7HLxFCvCnuM4cByHTZvex0MPPYTW1uvYu/cYVKou4UTCgdFYBI7rQFZWEVQqDeRyPp61tZ0HgKSOVQYDg6KiIqhUKnGVT0i8hPnBkXgZnRiNFSnRMz/aBCuSxH7SGShPEedy8RaADMOfxzAM7li3Grv2NkZNvMRyYcYRkwnvbtriDK7iwAu3gO1p864XCFQWE6h+tMIw5dDpmsXmMQ8/HNri2Pj+L4ASgAqAKqk/s1SLwSReiKTDaCxDVVUG8vNLcPDgdqxZc4cjKEsHXl/BGW7B2x1/wV+KQPWpDsuy4DgONpsV27d/CLM5NdIZRYUFmDd/KRQKJRjHwo+jlWBFktjPs+yeZRHqPAWd7z2HLVv+hYcf/iIuXryIPXvOQqe75nowIuVJtRic0uLFbDajo6MjIa+XiB1GYwmqqrJRUFCMAwe2Y+3aT0Cr1YndiAiw2+3o7GzH2bMnMTg4AI7jwLIsAGDx4iXQanXgOA4HDuyF1SqMoFBApVJDq9UiLS0NCoUCGRkZ0Gi0UKmUkMnkzgyO+7Z160e46aZboFTynfFd2RAhY8KLJ2Frbm7G8PAQjEYjzGYzbDZ+RJFKpcLKlTdBo1FBJpPhvffeA8AvGcAwDAoKClFZWYWCgiLI5XLHOyWiwciIER999D4eeeQxXLx4Ebt3n4JOd13sRqQwBgODwsJCqNXBz/VE4iXMD47Ey+jEaCzGxIk5yM8vwYEDH2Pt2juh1WrFbkQIsCwLk2kEPT3dOHGiERaLBQqFAmvX3g6DYRh79uyC1WqBXC4Hx3GQyWTIyMhEVlYW9Ho9dLo06PU6yOUKfkVnmRxyOS8aZDIZ5HIZ5HK5o86x/pBDvLzxxmv47Gc/D5nMJWiE12S3s7Db7bDb7WBZO1iWhc3GNxmxLAer1YqRESMMBgMMhmH09vZiYGAAAJCRkQGFQgmVSomKigosX74czz//PEwmE9RqNaZPn4Pc3DxoNNpRnZWJByMjI/joo/fw6KNfwoULF7B790nodG1iNyKFSbUYnNLixWQyobOzMyGvl4gdRmMRJk7MRUFBKfbv34Z16+6ERkPiJVSE7Mrp08cxPDwEjuMglyuwYsVK7N27GzabFQzDIC0tHbm5ucjIyEBaWroj2PNCRC6XQ6FQQK1WQaFQwGazYWTEiP7+fhw+XA+OY8Gyrg1eTRXSuIsYQfDwGRQZli9fjvz8AmRmZkCn08Fms2J4eBgGgwEmkxk2Gy9yOI6D3W6D1WrBzp07AQBarRYZGRmYMWMG9u3bB6uVf49ZWVmYNGkaZWXCxGQawYcfvocvfvFxXLhwAbt2HYdO1y52I1IYg4FBQUEBNBqNuMonJF7C/OBIvIxOjMYCTJxYgIKCEod4uSuk62IsIwiWo0frYbFYIJcrsHz5SvT39+L69VYMDw/BbrejtLQMOTm50OvToFTyTT4qlcr558FisaCvrwf19XWOrAgvTABAJpNDoZBj1aq1UKmC/7MRDBaLGTt2fOQQKHanwBGyOrfddjvKysqQkZEOhgF6enrQ1dWFkRET7HYWNpsNVqsZO3fuhEwmQ15eHqqqqlBeXo733nsPVqsVGo0Gs2bNJyETAiaTCR9++K6beDkGnW5sDFMfK6RaDE5p8TIyMoKurq6EvF4idhiN+Zg4sdApXm677S6o1cFfF2MN9wzL0NAgAGDlypuxb98u2O0sMjMzMWnSJKhUGiiVSsjlcsjlCmeTC8ex6OnpRn19HaxWGxiG78CpVCpRXT0NaWnp0On0UKv58+OJ1WqF2WyC0WjA8PAQzp49BavV6lxdWqlU4tZb12LKlMnQarXo7e1FR0cHjEYjbDbWmZnZsWMH5HI5cnJyMH/+fGzbtg0cxyE/Px/jx08mIRMAs9mEDz54F4899gQuXDiPnTuPQqejodKjCYOBQX5+fkhN9CRewvzgjEYjuru7E/J6idhhNOZh0qQiFBSUYt++rbjttg0hNSeOFbq7O9HUdMQpWG688Rb09HTj+vVrGBwcREVFpaMTvMbR/KOEQqEAy9rR19eLw4frHJ1xGSiVSkybNhNZWTnQ6XRQKlXOrEeywXEcrFYLjEYj+vt7cerUcdhsfKditVqNNWvWYsaM6dDpdOjq6kJbWxsMBgOsVjssFjO2b/8YOTk5qK6uxpw5c/CnP/0JLMuiqKgIVVVTkJdXIH7KMY/ZbMYHH2zEl770JM6fP4+dO49Ap+sWuxEpjMHAIC8vDzpd8IMjEplASCrxEuoHR+JldGI05mDSpBKneFm/fkPUmydSme7uThw6dABWqwU33XQrzGYTDhzYg4yMDEycOAlaLS8+5HIl1Go11Goluru7UVu73zlySKlUYebMuaOmQ6t7h+Tjxxs9xMyGDXdj4cIFGB4expkzZzAwMACbTRAy26FUKjF37lzccsst+N///V8olUosWLCERIwbFosZmze7i5fD0Ol6xW5ECpNqMTilxYvBYEBPT09CXi8RO4zGbEyaVIaCghISLw6EpqHGxkOwWq1YtuxG7N+/CxwHpKWlobJyHPLyCqBQKKBU8n1X+vp6cPDgPthsNigUSsyaNW/UiJVAuIuZpqYjsNttUKvVuPvue7Bw4QL09vbi7NmzGB42wGaz4aOPPgQczVDLli3D3r17oVQqMWfOQmpSchMvjz/Oi5cdO+qh03lPg0+kLgYDg9zcXOj1enGVT0i8hPnBkXgZnRiNWZg0qRyFhaXYu3cLbr/9biiVwc//M5oQNw0tXboCBw7wgXXcuPEoLCyCUql29F9RYWCgD7W1+52CZd68RRR83cTfkSOHnELmc5/7AmbOnI6rV6/i4sWLMJlMsFpt2LLlIyiVSixatAgHDx4EwAvE2bMXjNlsjNVqwaZN/8QTTzyFc+fOY8eOOuh0/WI3IoVJtRic0uJleJif9yERr5eIHUZjJiZNqhjT4sW9aWjVqjUwGg2ord0HpVKJSZOqkZ9fCIVCCaVSiYGBPtTX15JgCRKxkFGpVHj88ScwadJEnDt3DpcvX4bFYsWHH34ApVKFCRPG484778SvfvUraDQazJmzcMyJGJd4+TLOnTuHHTtqodPx8+0QowODgUFOTg7S0tLEVT4h8RLmBzc0NIS+vr6EvF4idhiNGZg8uRIFBWXYu/cj3H77PXEf5ZIo3EXLypU3Y/fu7eA4Dmlp6aisHI/8/AIolSoYjcOoqzsIuz1+gsVu5/uJGAzDGBoaRFtbC6xWfjSP1WqD3W4H3KadF2bMdcc1v4trTSVehPHNXUqlAoWFpUhPz4BenwaVSh3z99TZ2Y6GhlowDIPy8nJ8/vOfh9FoRE9PD65da8UHH2x2+j/55JP44x//CI1Gg7lzF40ZEWO1WrFp0zt44okv4/z589i+/QB0Oj4bSIwODAYG2dnZSE9PF1f5JJEJhKQSL6F+cIODg+jv70/I6yVih9GYjsmTxznFyx133AOFYnSLF6PRgF27tsFqtWDFilXYu3cHlEoliotLUVJS6himrHJkYPaDYYD582tiIljEo3lOnz4Bu90Gu511CA5+8ro5c+ZArdY4Zs51zaorPAbHcRgYGEBjYwNuuOEmyOUMABlkMn5WXmHuGH5oNu9vNpvQ0NDgMbcMP1meAlOnzojLaKiNG99EZWUlnn32WVy/fh2tra1oabkGk2nE2cH305/+NN544w3o9XrU1NwAnS74jHEqYrNZ8a9/vYMnn/wKzp07h+3b90OnGxK7ESmMwcBP5piRkSGu8kkiEwhJJV5C/eAGBgYwMDCQkNdLxA5evIxHYWEp9uz5CHfc8UkoFPy6OKOR7u5OHDiwG6tWrcX27R9CqVSivLwShYXFUKnUUCqVMBqNqK3dB4YBampWxOwff0PDQRgMBoyMjDiXCygrK0daWjr0ej20Wp1o9l25Y94YYXkAuccyAN3d3fjgg034whcedtYJWRfOsZ4SvzwAL44sFgssFqvDxne6FTI9V69ehc1mh0qlhFarg16fhnnzFovfQtTYuPFNjB8/Hs8++yx6enpw+fJlXL16FWazGdu2bQMAPPvss/j5z3+O+fNrYvadJAM2mw3/+tc/SLyMYgwGBpmZmcjMzBRX+SSRCYSkEi+hfnAdHR1QKExiM5HiGAxpqK6eMOrFC99ExA9fXrr0Bhw4sAcTJkxEUVExlEo1VCoVDAa+r0usRMuhQ/thMpmg0+lQUlIMtVoDhYKfyE7IsMjlcsfCizJwHAuTyYTBwQHU10d/eQCZTIbVq9cgKyvTsXaRHDabDUNDwkKNFqewcV8aQC6XIy+vAEuXrhQ/VcRs3Pgmqqqq8F//9V8wmUw4c+YMLl++DLPZjMbGRsydOxfbt2+HRqMZtSJGEC9PPfVVnDt3Ftu27YNePyx2I1Icm02DwsJCsdkniUwgJI14QYgCJpFrKhCxxWDQo7q6atSKF/d+LUuXrsSBA7uhUCgxY8YsZGRkQa1WR120uC8bIJcrkJmZhbIyvjmKFysKyOVyKJX8qCWAQ09Pt6NfTeKXBxAyPffccy8qKysgkzHo7e0VLQ1g9RIz48dPjFrT2saNb0Kn0+EPf/gDzGYzjh07hkuXLmPz5k1QKpVYvXo1tmzZgrKyMlRUVEX8nSUT3uJlL/R6g9iNSHEMIawxODAwAIPBALWan1Mp3iSVeEGQAsZsNqOnpydhHxoRWwwGHaqrJ6KwsAx79nyIT3zik5DLU1+8GI0GnDlzAlevXsaqVWuwa9c2KBRKjB8/wdlEZDQacejQgaiIFvdRNTabFXK5AhMnTkJeXr6zI6xSyY9YYlk7ent7UV9f6zHr7pQp05NqeYAzZ056zaY7ZcoU6HRadHd3eywNwHF27Nq1C2q1Bnq9HuXl4yMWMkajATt3bgXHsXjxxRdx7do1nDp1Cj09vc65Yp5++mm88sor0Gr1mDt30agQ3na7De+/L4iXc9i2bTf0eqPYjRgFmM1K5Obm+hUwiRYuSEbxAjcBo9FooFAoHKvNMmBZFtevXwfHZdPU1KMYg0GL6upJbuLl3ogCTjLAN7McwJIlKzA0NIja2n0YP34Cior47AfLsti3b1fEosVbsMgxYcJEFBYWQaXi54NRq9Ww2Wzo7/deIiAVZt31N5vuunW3YdasmdBoNI6Oti2wWKyw2azYs2dPVIXMxo1vYsKECfiv//ovHDt2DFeuXIHJZEJdXR2mTp2K+++/H9/97vewcOFSZGT4/jOWCtjtdrz//t/x5S9/DWfPnsW2bbug14+I3YhRgsHAQK1WQ6/XQ6nklxUR4nAyCBckq3iB44XB0TYuk8kcM4cqwXHUSWy0YzBoMWUKL15270598dLcfBnHjjVgxYpV2LlzKxQKBWbOnIPMzCyoVGqMjIygrm4fFi9eHrZo6e7uRF3dfqdgGTdugmNdI16wKJUqDA72obb2oDPYj5YlAvyJmS9+8YsoLS3FpUuX0NraCrudg9XKd7iVy+XIycnDlCnTw/7cAWDPnm347//+PtLS9Dhy5AguXryEzZs3Yfr06Zg6dSreffddzJo1H5WV48WnpgwkXsYmUnHYYklLiuRB0ooXYuxiMGgwZUq1Q7x8kLLiRRj+bDabsGjRUhw71oDKyvFuTUQG1NfXgmGAVavWhjXctru7E7W1e8FxnOOxi5z9WPgOv8M4cGDPmFoiQGppAKVSia9//RvIz8/DyZMn0dXV5Vzf6OOPP0ZWVjZmzpwbtoiprd2L7u5OvPLKK2htbUVTUxN6enrQ1NSEefPm4V//+hcyMjKwZMnKsL7nROMuXs6dO4etW3dAr6fBEkTiIPFCJB0GgxpTpkxJafEiDH9eseJmHDiwG1VVE5GVlQONRgu7ncWBA7vAMEzYTUTuomXixEkoKCh2TPLGi5b+/l4cPLgPQOzmg0kV3CeiUygUuPvue7By5Q3o7+/H8ePH0dfXB4vFgq1bt0YsYoSRSc8++ywaGxtx4cIFmEwmfPzxx/jBD36A733ve1i6dGXYj58ovMXLduj1ZrEbQcQNEi9E0mEwqDBlylSneLnzzvtSJktgNBpw4sRRtLW1oqZmBWpr96K6ehpyc/OhVmtgMhlRX38w7CYid9EyadJkFBQUQalUQaXSwGj0zLIsXrwsrOcYzQjNa3a7DRqNBj/60Y+hUilx5MgRdHR0wGKxYsuWjyIWMXv2bMOPf/wTyGQMdu/eja6uLtTW1mLJkiXYtm0bSkvLMWfOwpQRlCzL4r333sZXvvJvOHv2LLZu/Rh6vUXsNuYxGisAWByb0CdECUAFQAWdrll0BhEuJF6IpCNVxYvRaMDhwwcxe/Z87NixBSqVyjkrrEKhwKlTJ9Dd3RFWE5GnaKl2iBYlVCoNDIYhHDiwB6AsS9C4Z2MA4H/+56fIzs5CfX09WltbYbFY8dFHH0YkYmpr96KqajyefvppfPjhh2htvY7NmzcBAF566SU888y/Y+HCZdBqteJTkw4SL8FhNBaB4zrEZicUW6MHiRci6TAYlJgyZRqKisqxa9fmlBAvPT3dqK/fj4ULl2Lfvp0oLCzGuHEToNFoYbPZ0NBQhylTZoTcadNTtExBQUEhlEoVFAp+QcbDh/ngG27zE+HKxrCsHc8++z1MmlSFhoYGnD9/3rlAYyQi5siRg/iP//gPdHZ2oqGhASMjI6itrcUnP/lJvPXWW1i4cBlyc/PEpyUVgnj56le/jrNnz2LLlq3Q6xM72iQZMRpzwHF9ePHFt6FSqWCxWPDoo/dhzZo12LJlC8XWKGIwMEjuqEAQSc6VKxdx4MAuzJ69APX1BzFpUjWqqiZBp9Ojv78XjY31WLLkhpCEi9FowKZN7+DgwT2YOHEyli1bidLScpjNZuzevR1bt25CQ8Mh1NSswO233xNWUCV48vIKsH79Btxxxyfx+9//Hp///Ofx7rvvYuXKlVi4cAHuuusuLFmyBHv37sDOnVtgNIY2Odu8eUvwjW98A1euXMG9996L0tJSLF++HG+99RaWL1+O2to9uHz5ovg0IiURRvIpkZaW7pwXyd+8ZUT4kHghkgzPfyexWoAvGhw5cgiNjfWw2Ww4d+4UJk2qRmFhCVQqNU6dOo6enh4sW3ZjSPN8dHd3YseOLRg3bjxqapajpKQcMpkcu3Z9jIaGOsyfvxi3334P1q/fQKIlytTUrMBtt23AzJkL8I1vfAOvvvoqbrnlFlRXT8Ydd9yBRYsWoqnpiPi0gKxbdxe2bNmGP//5z7jvvvswe/Zs3Hzzzdi2bRssFguOHq3HmTPHxaclDd6/QcogEImHxAtBhAjHcaivP4C8vAIwDIP8/AJMnjwVOTn5YFkWtbX7UFxchvnzFwfdv6W7u9OZbZk5cw7Kyiqh16fBYrFg//5dWLKEz7IUF5dSn5Y4sGHD/Zg3bwmeffZZlJVV4N5778XUqVMxf/5cDA524eTJo+ju7hSf5pOamhXIySnGU089hXHjxmHcuHG44447sHr1agDAbbetxYkTR4JaG4pIVvhMi9VqxfDwkGMCSH5GWiL6UJ8XIqkwGBSYOnU6Cgv5Pi933fUpiX9+iYNlWdTXH0BhYQmuXLkAtVqDCRMmQaPRoqenGxcvnsXixcuDzrYYjQbs2PGRY9gzP4JIpeLXN6qvPxjRPDBEdBDmcXnhhRcwNDSEuro69PcP4MMPP4BKpcZNN90a0vfz0Ufv4d5778O0aVNx6NAhDA8PY9u2bXjiiSewefMHmDNnUVL18+I4Du+++xa+9rVv4MyZM47+Gzax25iHOuzGD+rzQiQhyfsDZ1kWdXX7kJ9fiEuXzkOr1aGqajK0Wh0uXjyHvr7Qmon4JqKPUFExDosXL0NJSTkYhm8iOnz4oDPbEkpgJKKP0LfokUcewW9/+1vcfffdmD59Gu644w4sW7YUhw8fDCkLs3btndi27WPU1tbipptuQk5ODm699Vb84Q9/wJw5s1Ffvx92u118WhKRvL/RxKICwxSCYbLBMGmOLdthKxc7ExFC4oUggsBut6O2di/y8gpw5cpFZGRkYMKEidBoNDh37hT0+rSgm4lsNhuOHKnDwYN7MH36bJSVVUKnS4PFYsbBg7udooX6tCQXGzbcjxkz5uNLX/oSSkrK8OCDD2LevHlYsqQGe/fuQENDHWy24DISNTUrwDAafPTRR7j11ltRXFyMW2+9FU1NTZgwYTwOHdoHuz24xyKSA52uGTpdO3S6Xuh0Q46t12GjOV6iDYkXIsngACRPMxEcq+rW1u5FTk4erl69hMzMbFRW8kOhz5w5iezsXFRXTxOfJsng4AB27PgINpsNixYtQ05OLuRyOXbu3Iq6uv246aY1JFqSnJUrb8XPfvYzPPjgg5g9ezaqq6tx9913Y8KESuzY8REGB4Pv46BSpePtt9/G6tWrMX78eEydOhXNzc2oqCh3rFeVjAKGMi9E4iHxQiQZyXVJ2mxWHDy4F3l5+WhpuYLc3HxUVo6HWq3ByZPHkJ9fhKqqyeLTJGluvoz9+3ehomIcJkzgh1NbLGbs27eTmohSDKEp6Wtf+zcUFRVj/fr1qK6uxpIlNWhqOoyrVy+LT/GJVpuFl19+GStXrsSMGTMwY8ZM9Pb2Yvz4Shw6tA9Wa7JNCJdcv1FibEJXIZGUCJ10E91Zt7aW7+PS3HwFBQVFqKgYB7VajRMnjqKkpBzjx1eJT/GC4zicPHkMLS1XMGXKNMcCimqcOtVE2ZYU58Ybb8Uvf/krvP7667jjjjtw4403YvHixThypA6NjYfE7j5JT8/DCy+8gAULFqCmZjGmTJmCrq4uTJgwHvX1B8TuccX9t5jo3yNBCJB4IZIMOwDOOWQ0UUNHrVYLGhvrHcLlMgoLi1FWVgmVSo2mpkaUl1eioiLwxHN2ux2HD9fCYBjGxInVyMnJA8tyOHBgD4qKSinbMgqoqVmBrKxCfPnLX4Zer8eMGTNwzz33ID8/NyQBk5VViOeffx6TJk3CwoULMXv2bHR2dqKqagKOHq2HzZaYWW3df4v8cTJ3JibGCiReCEKEzWbDoUP7odPp0dJyBUVFJSgrq4BOp8OxYw2orJyA8vJx4tO8EDrgpqenYfz4idDp9Ojr68ORI4dCnnWXSH7mzq3BN7/5TVy6dAV33XUXFixYgKKigpAETF5eKZ577jlUVo5DTU0Npk+fjo6ODpSXl6K+/mCS9oEhiPhD4oVIQlzp6Xinqe12m2M4dJFDuJSipKQcWq0eZ8+ewoQJE1FWViE+zQuLxYz6+oMoKSlDQUExtFodzp49hZ6erpCGUxOpxbp1d2Hv3r14++23cffdd2PDhg0oKSkKScAUF4/D888/j8zMTCxatAhTp05FS0sLqqsn4fDhg3EfRk3NRkQyQuKFIBzY7XbU1e33aCoqKiqBUqnE2bMnUVhYjJKSwPM1jIwY0dJyFePGTUB2di5UKjUaG+uRnZ0b9HDq0cLGjW9i48Y3xeZRTU3NCigUejz77LOoqKjA3LlzUVJShIEBfi6Y3t5u8SleVFRMxO9+9ztwHIdZs2Zh+vTpuHq1GVOmTMbhwwfAsqz4FIIYU9AMu0RSYTAwmDp1NoqKyrFz5yZs2HC/2CUmCBPQ5ebmo7n5MvLzC1FSUga1WoPjxxtRVTUZRUUl4tM8MBoNaG6+ApVKBY1GA61WD5mMwaFDBzBz5tyA56cS7oJE+Eeu1+tRWFiIoqIilJaWorS0FAsXLgQA1NfXo7W1Fa2trWhvb0dHRwcMBoNbPwqeeH3f8eLYsUP4t3/7Oq5da8GZM2dgMBhw9uw5VFfPCCr7dvZsE5566imcOXMGFy9eQlPTMUyePBkXLlzC3Lnxm4l348Y38W//9jTOnDmDjz7aTHGCSCgGA0PihUguEiFeOI7DoUP7kZubj8uXLyAvrwClpeXO4dCTJk1Bfn6h+DQPBOFit1uRk5MHrVYHm82Gw4drHR06s8WnpASCSNHpdMjNzcWECRMwbdo0TJw40SlQioqKUFhYCL1eH1TTgiBYDAYDOjo60N7e7hQ2Fy5cwKlTp3Dp0iX09PTAaDQCKS5q9uzZhscffwJqtQpHjhyBwWDAyZOnMHPmvKCycOfPn8Djjz+OxsZGXL/ehpMnT2DJkiU4cuQopk+fE/DzjgYkXohkgsQLkXQkQrzU1x9EXl4+Llw4i5ycPJSVVUCt1uDUqSZMmjQV+fn+hzEbjQZcunQecrkc2dk50Gh0MBiGcfr0cSxdujKoAJVMbNz4JnQ6HVavXo01a9Zg2rRpmDBhAnJzc6HT6cTuMcFoNKKnpweXLl3CqVOnsGXLFmzbtg1GozEu10S0qa3di3Xr1mL69Gk4cOAABgcHceLECcyduxhqtUbs7sXFi6fw6KOPoq6uDj09PThx4gS++MUv4m9/ewtTp84Su0cdEi9EMkFrGxFjnlOnmlBQUISLF88hKyvb2VR0+vRxR8YlOOHCcUB2di60Wj26uztx9eqllBIuGze+iS1b3gfLjuDdd99FV1cX3n33XTzxxBNYuXIlysvL4yZc4Mj0lJeXY+XKlXjiiSc8XhPLjmDLlvdTqi/NrFnz8Nprr+Hjj7dj1apVSE9Px/Tp03HkSJ1z9WF/VFVNw4svvogFCxY4z33zzTfx+OOP4eTJY2J3ghj1kHghxiz9/b24fv0aLl++gPT0DJSWVkCr1eHMmZOYOLE6qKaiixfPgWEYFBQUQqfT4cqVizAYhjFnzoKkFi4bN76JzZv/icbGWuh0cg9xcOedd8ZVqASLTqfDnXfe6fFadTo5GhtrsXnzP5NazOh0eqxatQbbt2/Htm3bsHTpUuTm5mL69Gk4fPhAUCOIqqqm4eWXX8aiRYuc4u6ll15Cb28X+vt7xe4EMaoh8UKMSUZGjDh2rAGlpRUewuXSpfOoqpoclHBpbr4ChmGQl1fgWFn6PPT6NMyePT8phYuQXbHbR/Daa6/jzJmzOHv2LF5//fWkFSy+EITM66+/jrNnXe8jmbMyOp0e69dvcC7IuHz5chQWFmLKlGrU1x8IakLGqqpp+Mtf/oL58+dDq9UiPz8f1dXVOHWqCSMjfP8gghgLkHghxhxCR9ri4jLnekVarQ4m0wiuX28JqqmoufkKWNbuEC5anD9/Bvn5hZg4sVrsnnA2bnwT3d1teOedd9HW1oV//vNdfPrTn8G4ceOgUqnE7imHSqXCuHHj8JnPfMYjK9Pb25aUIgaO5QD++te/YunSpcjLy0NVVfDLAHR398Jm4zBlyhRotVqcOXMG8+fPw+nTTTSJHTFmIPFCjCk4jnNOHtfcfAWlpeXOLMmRI3VYtWqt+BQvmpuvwGq1OPq4aHHu3GmUl1cGNXldvGloOIht23bh44934Y47Uiu7Ei5CVmbXrl3YtWsXjhw5KHZJCoqKKvHnP/8ZS5YscQwvL0ZDQ63YzYuamhX4v//7BSZNmoTq6mosXlyDhoYGbNhwF86caQoqg0MQqQ6JF2JMcfLkMRQXl+Dq1cvIyMhATk4eAA61tXtw001rAjb3dHV1wGQacQyH1uLKlYuorJyAgoIisWtCEbIt27btxooVK8XVY4aVK1di9+7dSZuFGTeuGq+88gqWLVuG0tJS5OYGN6T+ppvW4j//8z8xf/58FBcXYfbs2di0aRMef/xLOHHiqNidIEYdJF6IMUN3dycuXjyHK1cugmXtKC4ug0ajRV3dPixevDygcOnsbEd7exvy8vKh0+lgtVohlysC9o+JJxs3vomurjZs2bILW7bsQkVFpdjFCcfx22insrLSmYVJRhFz9uw5nDx5CgsWLEB5eTkGBjqD6oC7YsUt+PznP4/169cjOzsbFy5cwCuvvILLly+gu5ufzZcgRitJL14MhthPwESMfoxGAw4c2I0FC5ZieHgIZWXjnP1chE63/hgaGsTx443IzMyCTqcHxwGXL1/AhAmTxK4JYePGN3H6dBM++ogXLcuXS2dbBMEyFkSLmJUrVyaliLnpplvxwQeb0dHRgRkzZkCv1+PEiaNBdcDNzc3HyZNnMGPGDNx+++04fvw47rrrLhw4sBtGo0HsThAhk6wxOCnFi8HAwGiUgWV1yMzMBMvqYDTKkvZDJKJPtNvtd+3aimXLbkJ9/X5UVlYhOzsHCLKfiyB8ysvHQa/XQyaT4ezZk5gxY07AbE2sEUTLBx/sQn39SSxfvtKnMPFlH2skm4jR6fSYOXM+Nm58DzabHRMmTMDixYvQ2FgXsANuTc0K/OIXP0NJSQnmzJmDdetuw0cffYQXX3wRdXV7xe4RIV7KgRi9pEIMTirxYjAwsNk0yM/PR1lZGfLz85GZmeksZ2VlOT7UPPGpBOGT7u5OWK1W7Nu3A0VFpc5+LnV1ewP2czEaDWhsrEdFBb/IokKhwqlTxxM+HHrjxjdx6hQvWurqeNECHwJlrGZaApFMIkan02PBgiV4992NyM7Oxrx58zB9+gwcPnwwoGC46aY1zv4vhYUFWLZsGb7whS9gaGiImo+IkDAYGIyMyJGdnS0Zg/Pz82GzaZJCxCSNeDEa81BWVobCwkJotVqv9ToYhkFGRgaysrLAcT0edcToRHwNhIOQNZk/fwnkcgWKi0uh1Wpx6ND+oPq5nD9/BtnZucjOzoFKpcLJk0cTPgHd5s0b8atfvYC6upNYulS6eUggQNwj3ETMH/7wB3z44bvi6rgyffo8vPXWW9Dr9Zg8eRKmTZuCI0cCj0BavvxmfOpTn8LatWuRlZUFALj99tuj1nwUjd8ikfwoFArk5OQgPT3d6ztnGAZarRaFhYUoKytLuIBJGvHCMH1BrZAqCJhEf3BELIlexN21ayuWLr0Rhw8fwIQJk6DT6TEyElw/l+HhIdjtLDIzs6BWq3H69HHMmhXcYnqxYteurXjvve34/Oe/JK7yEirisjvufV/8+Y0lHnvsMXz88cc4dCi6zS2hMmXKbLz22muYNWsW8vLyMHlycP2qcnPzceVKMyZPnoz162/Hxx9/jN///vdRbz4iRidWqxo5OTlBTacgk8mgVqvF5rgSWC3EAaMxDyUlJWKzT0jAEMEgNBft378ThYUlyMrKBsexOHr0UFD9XOrq9iE3l5/L5dKl85g4sRppaeli17hx7twp7Nx5BIsXLwNE4kQsQMRlARIr/lm2bBnq6urQ2dkiroorkybNwO9//3usW7cOWq0WW7b8K2AGpaZmBX76059g+vTpmDRpIpYuXYrHHnuMmo+IgBiNecjKyoJGE3iRUAGtVpvQGJwU4oXjeoLKuhBjg2gEV6G5aN68xZDLFSgqKoFarQlqWLTRaMDOnVtRXFzmzNS0tV0LmKmJFRs3vomBgT688cb7KC/3PfRZQOrzI9ESPKWlpdi+fTsKCjIT2g+mu7sXJpMZc+bMwU033YTDhw8GFDA33rgGn/vc57BgwQJnIFq3bl1Umo8C9b0hUheO6wlJuCQDKasYxO1xBOHOjh0fYfnyVTh8+CCKikqg1eowMmIMqrmotnYvKiv5DrocBxw9Wh8wUxMrNm/+J37609/g7bc/QlmZS7j4y7qICaY+kM9YQ61W44UXXsBvf/tbbNr0jrg6LtTUrMC3vvVfmDhxomMiulk4dGi/2M2L3Nx8GAxGjBs3DmvXrkNdXR1eeuklaj4iokqiYzCJF2LUITQX9fX1Qi6Xo6CgCBzH4dixwwFFyNDQIDIyspCZyXd6PHRof8ARSbFi69ZNeOONTXj44ac87P6ES6CygCBYfNUTPE8++SQ2b96M3bu3iqviwg03rMYzzzyDdevWIS8vD/PmzRW7eFFTswL/9V/fxPz585GRkY6uri688MILMBqN1HxERI1Ex2ASL8So49Ch/Vi69EYcP34EVVXV0Gp1OHz4QFDNRXV1+50LNR4+fAA1Nf7PiRWHDu3Htm31WLnyFsCPCHFH7CMuCzYpO+Gb1atXY//+/Th1qlFcFReWLVuFBx54AKtWrQq6/8sNN6zG97//fcyZMwfr19+OU6dO4Tvf+Q6OHTssdiWIsEh0DE5Z8UKMbjiOC+vHIWRdamv3oKCgGFlZ2TAaDUE1F+3cuRWFhcWOfi7BNTHFgqtXL+P993ejqmqyuMpn1kUsSKTKYhsRPFOmTMGBAwcwPJyYaRpyc/OhUCgxe/Zs3HjjSly+fF7s4sWlS5cwbtw4VFVNwKJFi/Cd73wn7OwLwzA0SR2RVKSseAknsBGjn7q6/Zg/vwYKBd9JV6PRoqmpATU1K8SuHgwNDaKgoBjZ2TngOBZNTQ0Bm5iizcaNb2JwcBB//ONfRf1bQgsYYndxWUAQNO4b4ZucnBxs3rwZJSW5ce/IW1OzAv/xH/+BhQsXIisrC+XlpWIXLzZsuB+f//znMWfOHGdnzHvuuQdHjtSJXQkiZBIdg0m8EKOG7u5O2GxWNDTUIj+/GFqtLqisi9FowN69O5CdnQONRov6+sBNTNFm797t+Oc/t+P119/3EC7u+Mq0+DqWKgs2KTsRGKVSid/85jfYtWsXjhw5KK6OKTfccAueeeYZ1NTUQKvVorZ2b8Dmo9zcfJhMZlRUVGDt2rV4//33YTKZwsq+EIQ7iY7BKSteCEJMXd1+zJmzCHK5AoWFRQAQVAbl4MG9KC2tgE6nD0rsRJvNmzfiD3/4G5YsuQHCBH2CuJASGb7EithXXPZlI0Jn5cqVePXVV+OegTl//jwyMzMxadIkzJw5HXV1+8QuHtTUrMB3vvNtzJ49G2q1GiMjI7j55ptx+HDowivUDCBBxJKUFS+JVn1ELOGcQTxYhKzL0aOHnM1FwXTS7e7uxOBgPzIy+Amajh07HLCJKdp87nNfcggXd4T37ylmgkXs7yvbItjdNyI4Vq5ciS99yXum41iyYcP9ePTRR7Fw4UKo1Wr09/cFzKLccMNq/PCHP8SMGTOwbt1t2L17NywWS8DzpCABQwgkOganrHghRi9CEA3lx1FXtw8zZ86DXK5AXl4BjMbgOtw2NR1BdfUM6HTBNTFFm6GhQTz66FcBN8EhHR+8RUwwx1JlwSZlJ0Ljueeei/tsvHl5Bbh+vd0pRo4fDzwKqrm5Gbm5uVAqFTCbzVi6dCnq6w+I3XwSym+RIOJByooX+jERAnzWxYbjx4+goKAYGo0WJ040Yv78GrGrB4ODg9DrM5CWlg6WZYOaByaaXL9+DT/60XMoK6sQVwEBxIwvsSL2lSqLbWIC1RMu1Go13nrrrbiuh1RTswI//vEPMXv2bOTl5QaVfdmw4X5873vfQ3FxMdauXYu6ujpYrdaA5xGELxIdg1NWvBCEAJ91mQ+5XIH8/AIolUqwrB0FBXy/FymMRgP27duBnBx+7aJgmpiiycWL5/Dccy+jtJQXLsEIhmB83BH7i8sCgqAJRtgQ3pSWluKtt96K64rUK1feim9/+9vOeVzq6wMvHTA4OIiJEydCqVTCYrGEnH2hJiMimUhZ8ZJo1UfEmuBulK6sSwPy8wuh0WgxODgAhUIJuVwudndy8OAet7WLgmtiihabN2/Ed77zU5SVlTsswnvlHOLBtfesd5TcisEcS5UFm5SdCJ1ly5bhueeei2sH3gsXLiArKwsTJ1bhhhtWBOy8W1xcCoBBWVkZ1qxZE2b2hS4YgifRMThlxQsxFgj846ir24+5c/kRRnl5hVCp1DhxotG58rIUfCfdAaSnZyakk+5nP/tY0M8niAtPMeNZ5+/YV1lsExDqfNUTvnnsscfi2oF3w4b78fjjj2P27NlQqVQBm49qalbgm9/8JhYuXAiVSgWLxYJ169ahoaFW7CqBMEmd2E4QiSFlxUuiVR8RS/ibZKCvWBhh1Nh4CEVFpdBoNDAahwNmUU6cOIaKigmOJd3j20l3cHAQjzzyZcBLmAQnGKR8ghUuvkQJCZboEe8OvAwjg1yuwPjx47F69eqAnXdlMhlGRkyYMGECbr31Vnz88cdBjTwK9Fskxh6JjsEpK14Ioq5uP6ZNmw2WZZGZmQ21WoOjR+v9ZjXsdjsGBvqRkZEJtVqNY8f8+0eT1tYW/PCHv3L2c/GFWMxIiQopmxixcBETSLD4qyOkiXcH3ptuuhVPPPE4pk6d6hw67Y/Fi5fhqaeexNSpU6FSqWAymfDwww/j6NF6sasX1OeFSCZIvBBJB3+P5Pw2GwlZl8uXL6C8nM+iBDPUeXBwEMXF5UH7R4uLF8/h//7vz36EixAYfO+lYocvgeLrWCiLbe52X/VEcMSzAy8/saIRarUalZWVuOUWfiFPX+Tl8R3aAcbp//rrrwcx6y7/WyQBQyQLKSteEp2yImKPv6/46NEG1NSshM1mRUZGBtRqTVBZlMbGQ8jMzHL4x6evy+bNG/Htb//EQ7gIQcC1F+yee2/CFzFSZcEmZSfCJ54deDdsuB8/+clPMGHCBKjVGtTW+s/61NSswOOPfwkTJ06EWq2B0WjEz372MzQ3XxS7OuF/i3SREC4SHYNTVrwQoxt/wdRut8NgGMLQ0CDkcrnjBhw4i9Ld3YmBgb64Z130ej0WLeJFkr/3JYU/MRPIJq6XKott7nZf9URwPPbYY1i5cqXYHBOEkUfl5WVoa2v1m0URsi8ajRYajRoA8Le//Q0tLS2w2+1idyd0LRDJBIkXIknhfDYbdXa2AwBOnGhERkY2VCo1mpoaAk5K19R0BFOmzIJGowlqpelosGfPdmzatN/NElkEkBIzUkFFbBP7S9VL2YnIePXVV+OygOOGDffjhz/8IUpLS3Hbbetx/PhRsYsH8+fX4Bvf+DoqKyuxZs1aNDY2gmEY52/LG8Zx7dIFQiQHKSteEp2yImIJf4P09RUfOXIIkyfPAMPwq+YqlYqAk9LxWZf+uC4DsHnzRvz2t687motcN32xAHHt+QNfe+9+MN6iRAp/Pr4Ei7uYkaongqOysjJuCzhevnwZxcXFKCsrRX9/r9/sS0FBESwWCyZNmgSlUuEcNt3U1CB2BRy/RboWCHcSHYNTVrwQYwHvH4fdbofNZsWZM03OxRQHBgJPStfUdASTJ0+HRqMJaumAaKDT6bF48XIvkeKNzwoP/D2OL4Hi61iqLNik7ET4rFy5Mi7NRxs23I8nnngCeXl5Adc8ksvlkMsVOH36DLRaLQBg06ZNMJlMPpqOvH+LBJFISLwQSQcfQKUjaGdnO2QyXqTo9RlQqdQ4deoY5s1bJHZ1ImRdtFod5HIF7Hb/WZposHnzRvz+938NIEy86/wJFDFSPr7EivhYfK6Uzd0uVUcEz3//93/HJftitVoxdepUKJWKgJPWzZu3CC+++CdMmjQJa9euAwAolUqfTUf8b5IuBCI5SFnxkuiUFRF7pL7iI0cOYeLEqQCAnBx+ldxATUYnThxDWdl4qFRqDA0FztJEAyHrIo1rxJB4L0bcdCQl6qQeI5hjoezLJrYT4ROv7ItSqcS1a9eRnZ2NW265BWfOnBS7OCkoKILZbEZpaSkUCgUA4JZbbpFsOuKbjaRHuhFjk0TH4JQVL8RohnMEac8fh9Bk1Nx8CSUllVCr1QGbjIRJ6dLS0qFSqQIuHRAN+KzLGx42KYEhjeDg31E8xNodX2JF7CtVFtvc7VJ1RPDEI/tSU7MC3//+9zBr1iyoVBr09nb7aAZyNR01NR1Henoabr75Zhw6dMhH0xF12CWSCxIvRNIiFvZCk5HNZnWIETVOnTrqt8mos7MdLGuHRqOBwRB46YBo4J518Qz40jd+3sd3Nka8l0KqzpdwEQsRcdndJrYT4ROP7EteXgFsNhuGh4ehVMpht9t9NgPB0XT02mt/wZQpU6BSadDT0wOVSuV1DnXYJZINEi9E0sHfIDmvzMuRI4cwa9Z8ABw0Gg3kcv7m7K/J6OzZU6ioqHIu2BjrjrpC1sXfTT4YMeIPf+dL1fk69lX2ZZOqI0IjHtmX+fNr8JOf/AQFBQVYvfpWtLRcFrs4EZqOMjMzoVDIwbKsj6YjfmFGgkgWUla8JLq9jYgl3gszCk1GTU0NSEvj1yUK1H9FaDLS69McN2b/Qica6HR6LFok7uvC3/Sl7/2SRoevkI1x7R21HnvhcaUe390mPvZX9mUjIiMe2ZeCgiJYrVbHMGgVDAaDRDMQj9B0VFdXj+zsLNxyyy04fPiwV9ORq88LXRAET6JjcMqKF2L0cuHCaRw8uN0j8yI0GdntNmRm8hPTnTwZfJPR0NCgX6ETDTZv3ojf/e51Z9mfqPAlPDxFijfS/p4Esonrpcq+bFJ1RGjEOvsiCJL29nbI5QzMZpNXM5A78+YtwnvvbXSIHb4fmXfTEYOXXvoTdu/e4WYjiMRB4oVIKhQKBYqKyrBixRoP+4kTRzF79gIADPT6NMhkTFBNRuPGTYJKpcbp08f9Cp1oIGRdggnuwfiEgpSY8WcTjoMpS71WKRsRHPHIvsybtwi/+93vUF5ejhtuWInLly+IXZwITUfp6emQy2UYGRnBvffeiwsXzjh95HIZHnnkMSxYsNDjXIJIFCReiKTBaMxDbm4+qqom4+DB7ViwgO+fwrIsRkaMMBgM0Gg0UCqVQY8y0un0cWkyEmbT9cQV4V1CwnfUF48g8tx7NyF57j0JZBMf+yu726TqiNCJdfZFaDqaMGECFAoFurs7AzYdnT9/AUolP2T69Omz6OvrBcuyAIC5cxfhlVdewkMPPYjq6moYDIltMiAIEi8EDAYmCpsCBkMajMZcGI2lMBonYGRkKkZG5mJkZAlMphthMq2ByXQnzOb7YDZ/Fmbzo7BYvgyL5f/BYvk2Skv1mDRpKkymEY9RQSbTCDiOw/nzp6DVpkGpVOL06WOYNWue+K04EZqM+L4xQ36FTjSQ7uviP9ALdf4Ejb8mJDGuxwvOJj72VfZlE9uJ4Il19kUQJFevNkOlUgYcdTRr1jy89NKfHfPDrMa1ay3gOA4m0wjgGMWkVquh16fhlltucQqY6GxaGI1ZMBqLYDRWYmSkGiMjszAysggm0w0wmW6FyXQHzOZ7YTY/BLP5M7BY7gPLboBSeRfs9vcAGMVviRjlMBUVFc5bUHNzM/T6+N+RDAYGFRUVYnNAEvV6RwMGAwOZTAGdbjby8/mVllUqNTIzMwEwGBwcQGNjA1auXAWGYcAwQgct/pjfex6LEWbk5AOd65jfu+y7d+/A5MlTUVk5HgMDAzh6tB433bQGOp0eANDSchVHjx6G3W5DZeUklJSUobZ2F1avXu/0EbNnzw5otXqUlJSisbEOs2cvQHl5pdgtKmzevBHPPfcKbrllvfPzgHOot/tnJJzhbRM+P/fPUWzzt3c9jvc+kE18HExZXEeEznvvvYe77roLGzbcL66KCi0tV3Hy5FE88MADaG5uwalTp31OnGg0GvDxxx/gP//zP3HkSCN27doJjuMwY8Zcj9/Nnj0f41e/+hW6ujrxyiuv4Pjx43G7R6xcuQoKhRwymQwsy0ImY8CyLLZv/xgMo0Za2nRYrc9CLl8NQCd+KsIPqRaDDQaGxMtYwiVYZqG83ISCgiKoVGooFAqoVEoolUoolQooFAr09PTggw824eGHvwiZTLgJydxuUsKxaxMjjE5wbazzZsQfc2BZDi+99Cc8/PCj+MtfXgXDAKtWrfUQJdu2bcaUKbPQ0HAQ06bNhl6fjsOH9+GOOz4Jmcw7eciyLD766H1UVFQhLy8PdXV7/QqdSNm06Z9oaGiGVsvfMF2iAm43cvdjb9Hir857L+Xvfp5rH8jm71iq7M9GhIbRaER+fj7WrPmEuCoqCILkm9/8JhoajmD37l1Yvfp2n7+ZTZvewbPPPotDhw5j8+Z/4dFHH8X777+PZctWefhu3PgmNBoNPvOZz+LPf/5jHO8Rj0ClUkGpVIJl7WBZFgaDAQMDA7Ba7bDbbdiy5SMAOiiVcyGX/whyeeyyW6OJVIvBJF7GCAYDA622GmVlQHFxiUOwKKFWqzA0NID9+/eBZe2w2+2QyWSw2WzihwgK9xuU5164mbmOxf/K5HIZ5s5d5DWBnHBTnTJlFi5dOofq6hmwWs24cOEMbrvtLg9fAaPRgG3bNmPq1NnQ69Nw+PB+n0InGuzatQ11dZd8igspm+s+7m0Tf4b+6tz3Lh/f+3COg7URoXPXXXdBJuMXRow2wm/ne9/7Hmpr6/Dhhx/4FfEffPAuPvOZB9Hb24N3392IRYsWoaGhAbfffo/Xb8doNGD//p2w29mAmRPhGM5Mi0u0hINCoQDHcVAoFJDL5XjwwYcwYcJ4dHR04Nq1azCZTLBYLNiyZQuUypmQy58nEROAVIvBJF5GOQYDA42mGhUVQGEhL1q0Wi2MxmHs27cbNpsNCoUSq1ffhqtXLzvayfm0rEzG793Lcrmw97ZJ/auKBoIQYRgZCgpKUVZWjqNH/TcDtbRcxeHDBzFnzuKAQidSNm/eiJ/85De44477vMQLf+xp86zztLk+Qm+blFjx3Iv9XftANn/HwZTd7URovPHGG3jwwQdj1nT0wQfv4rOf/Sy6ujrx7rvvYsGCJX5/NydPHsWnPvUpXLt2DSdOnEBnZ6dfwRMpfGbFDruddWZT7Ha7D5tnecKESbBYzNi27QPY7TaoVCr86Ec/hk6nRWNjI65fvw6z2YytW7dCqXwGKtVPIfz2CE9SLQaTeBnFGI3ZKCrSYfz4idBoNFCp1DAYhlFbuw9wzMJZUFAU006s0UDo72KzWTFx4jQUFBQF1d9Fo+H7uwQSOpGyadM/sXVrA0pLKzwEnC9x4X7sz+YSCZ6P468u1tmXQGXBRgTPlStXUF1djfXr7xZXRQVBkNx3331obW3FqVNnAvZ7efrpp9HUdAK7d+8EAEyfPidmv59oIXRIbmioBccBP/nJT5CXl4vjx4/j3LlzMBgM2LevCCrVX8WnEikYgw0GhkYbjUZGRtJRUZGDSZOmQq9Pg8lkxscff4Ta2n2oqVmB22+/B8XFpUkvXADg7NmTmDt3MQBApVI5m7Q0GulUO98OPgStVguFgl8+IDc3T+wWNWQymXMItnQWXEiTi+3SNjGCj8vX/0lif6nncLe5+0kdB1P2ZSMCU1JSgpKSErE5auTm5sFisaCoqAgKhQr9/a7hz2KE35RCoYRMxs/38thjj/ldXiBZkMvlKC4uxe2334MlS1bgW9/6Fh577DFMmTIFn/rUp1BZWYkbb+wGw9wrPpVIUUi8jDLM5jxUVZVi3LgJ0Gp1uHTpAurrD2DJEl60iPuUJDsm0wh6ejoBh3gxGAahVKq82uAFTKYRWK0WqFQq2O18NPUldKJBWloGFAqV2OxEKqBL2QT4OqGvgH/cxQa/5w+kzhX7BrIJx8GUpZ6PCA6VSoVly2K3yrlw7SuVvCAxmUzO4c9iZDIZFAolWlquOed7qaurQ29vj9g1qcnLK8D69Rtw++334Lvf/W+8/fbbuPfee7FkyRLceKMJFsu3xacQKYh0BCBSkHUoKpqMqqoilJZWQKvV4eLFc9BoNCkpWuBIBdvtdly6dA6FhWWQyxU4d+4UpkyZLnZ10tPTDZZlgxI6kbJ580b84Af/52ZxRXGpgC5l85eZEeDrXILG5SscSJ8s9hcLD182qeNgymI7ERz33ntvzCasEwTJtWutUCoVYFkWPT3dYjcnU6ZMxz/+8Ta0Wg1uuukmtLa2On+HqUhNzQooFHr87ne/w/z581FRUYG1a5tQXv4STKY7xe5EChGbuzoRd4qKLiEvrxAlJaXQanU4f/4M0tLSMXnyNLFrymCxmJ39OZRKFeRyOTiORVpautjVSU9PF4qLK6FUKnHu3ClMnTpD7BI1OI7DsmU3iWweRZHNu9KfP7+XcHDD09d7L4WUT7DHwZT9PTfhzerVq6HTxW5ekqlTZ+Ctt95ERkY6br75FnR1+Z6sLi0tHSzLQq/XQy5XwGq1gmEYWCxmsWtKoVKl41e/+hVmz56DmTNnorr6fYwbd1LsRqQQJF5GAUplDnJycqHV6qDXp+Ps2VPIzs7F+PETxa4phcEw7PzHp1KpIJfz/xx9ddQFgKGhQajVKigUSnAci/T0DLFL1EhLS3em5aUCtpRNQKrO39BRT8Eh1awkGDwrPM/z9bzex+4iRCxIApUFGxEcOp0Oq1evFpujRnp6BliWRU5ODuRyBUZGfM9Gq9PpYbfbkZGRAblcDrPZArvdDoNhWOyacmRnF+G55/4PMpkCc+bMwbRp06gJKYUh8ZLCcNxVmM1LHc1Eemg0Wpw61YSCgqKkHx0QDMJK0HCb2wFgoFZrxK6Ao5nJYBh2nsNxHPT6NLFbVNi8eSN++MPnQw7SUv5SNgHPOilH7+YkX3t3pOr82YTjYMpSz0f45wtf+ELMmo70+jTYbDZoNBrIZDJYLGafzUDCb0uhUIBhZDCbTc5V2UcD5eVVeO21v0Cj0aKqqgpr1hyDxfJlsRuRApB4SVE47ipMpumoqhpAVlYO1Gp+5eSiohIUF5eK3VOSy5cvOlaShiPrYgfD8J0PpbBYzLBYzFAo+AwNxwEqlVrsFhWkmowEpIK3t00qe+JCKgsjFhcSLg6kK8TniYWHL5vUsbu/r7Lv10eIiWXTkUqldhtOL8Pw8LDPZiClUgmO42Cz8RNWWq1W3H//A+jsbBO7piQ6nR7z5tXg1VdfQVXVRCxatAg33njOIWDogk0lSLykKCMjc1BSkofs7Dyo1RqcPXsK5eWVKCwsFrumLAbDkHNkhEIhh9lshkzme3i30Mwkl8thsZghl/OT7MUC9yYjAc9gzRekArg/m3SdhFGyeSg2WZhAx/7KUs9HeBPLpiO5nJ9Esr9/ADIZA5lM5rcZSCaTo6+vDzIZA4BBf38/urr4EX+jhalT5+CFF36P4uJijBs3DjfccAYWyzfFbkQSQ+IlBbHbd0MmG0JBQRE0Gg2uXLmIiorxyM8vFLtGxJYt/8KVKxfR398Hi8XsI4jGDo7jMDAwADgyL2bzCBQK32JESG0L7fpyOT/cM9ps3rwRX/zi153lyD8W6QeQelx38eDaSzgGQPpxAtukjkMpE7654YYbYtZ0JJcr0NnZ6RT0g4O+m4EUCjl6e/sgl8uRkZGB4WGjz7lh4kUs7kWTJ8/Er3/9a6xfvx56vR5W609ht+8WuxFJComXFMRsvgslJeXQaLQwGg1oabmM/PzIhkJv3Pim12Y0GtDYWI9du7Zi27YPsGvXVjQ21sNoNIhPjzpWqxUAcO3aZccwaTkuXTqHqqpqsasTg8GA/Hx+8r1Ll85i4kTfvpFgsZhRVOR/YjGpe2twNunmJJfNu1IsNvh98FkY9+cLZJM6FpeFY3GZ8E9paeyaeydNqsaWLR9BpVKhpKQE586dErs4qaqqxscfb4VarUZWVqZzpl3hNxlrxPehd999CyMjIzh79iTOnD6O8+dOo7OjFSOGQXR3R5YR6u7uxblz5zFz5kysW7cOdvtXxC5EkkLiJcUQsi75+YVgWRZHj9Zj1aq1Yreg2bjxTRw7Wo8vffFJPPP0N/GjH/wvfvPcH/Hay2/htZffwm+e+yN++P2f4mtf+QY+de8DyMzIwM6dWyO+aQTCbDZ5jDQSOuz66qwLxznuvhqNb99IKSwslgzI0bX5FzLS/z49be4CQmrvjlSdP5tw7O7jq04oE76JpXhRqzVgWQ46nQ5qtRoc5zuTolZrHJ3deV+rlR9xZDabxK5RZ+PGNzF71lw8+fhX8d1v/wDP/98LeP3Vt7H5vW3Y9N42/PW1f+CPv38ZP/7Bz/Dk419FY+MhbNr0Tth/qGpqVuAnP/kxysvLoVKpYLUep+xLikDiJcXgsy4V0Gi0OHz4ABYvXu536LA/du3cgud++Tu89KfX8cCnHsL6dZ/AsiUrMGP6TJSXV6C8vAIzps/EsiUrsH7dJ/DApx7Cc7/8HX72P79CY+MhnDrVJH7IqOF+M+LneBHEi+8OuBaL2TmkmhcvsZlZl2EYr0n/pAKzy+aq9O/nzyYtZAQEIeMuJMRCRgpPf2mx4csmdSwuC8dSj0V4UlRU5LE+VjTRaLSOOZLSnELGF7y44UfqqVSuPwDhCoRgEP5EPffL3+G5X/4O933yAdx04y2YOWM2SkvKoNPpIGNkHp9PRkYmNr27DT//6XPYu3dH2H+obrxxDX784x9jxowZWLfuNsq+pAgkXlIIIeuSl1cAo9EoGUSDQbhRvPDblzB71lxxdUBmz5qLTe9uw5rVa3HixDFxdVQYHh7yGCYdnHixOH1Z1n+WJhIYhkFubmifu1TQDt/m3STkCW8U+wS7l7JxPgSI+FjKX6pMeFNYWBgz8cILFta5SKu/PixqNV+v1WqhVvNLX2g0GgwPD4ldo8Lmzf/EU098DS/96fWw70cv/+n1iLIwzc3NSE9Ph1pN2ZdUgcRLCmE2fxKlpZVQqdQ4caIR8+fXiF0C4p5tKSzkFxQMl7vvuhcPPvAQjjcdEVdFTHt7G+bMWQQ4V0tmwHGsX0HCjzBSQC6XOXx9C51IYBgGWi0/rFUqIEvZAiF1TnA2l0FKXPjKvng/jgvx44hFiLAP9thXmfBEr9dDrw8vixoItVoNu90OjUYTVLORMGpPWLfrgQc+DYvF9+R24bJt6yb85zPfwb333C+uConCwiKPLEyoAmbDhvvxhz/8AaWlpbj11lshkz0tdiGSDBIvKYMRHDcIvT4NCoUcLGt3rmYcLJs3b8T3nv1RWP9ufLHyhpvw5ONfwcmT0c3A8CMK+GNeuPAFhUJ6BBHLsrBarZDJGLAsf46QuYk2/Dwz3v+QpYJysDZ3pOr92Vx1LidxnXgvILb72gdjkzoWl4Vj93qCh2EYFBZGd8SggPtvgZ99mvOZfRH6jDEMA6VSCYZhYLVaMTTke3h1OBw6tB/f/c4PseqmW8RVYTN71lz85Ic/w44dH4mrAtLa2opx48ZBoVDBaDwNIPpijYgeJF5SBLt9GwALVCo1BgcHoFAoQ57DRKPRRFW4CMybuwBPPf6VqPaBsVgszn+HDMNnUuAY8ikFy7Kw221gGMYxQR0XswUZlUpVWOl9PmB7Ru1AQVyq3p/NVeftJPYJdi9l4yJoRhKO3X0JXrwUFYX2hyRYZDIZOA4wmcyOFaP534kUcrnCIVhsjpl2Gdhs1pCzGf7YvHkjnv76f2DhgsXiqoiZPWsu1Gp1yH1gOI5DZ2cnFAoZAKPjnkskK7G5uxNRx27f5lhwUIUzZ06EvODg5s0b8YPv/URsjhqzZ81Fa2tzyDcMX9hsVme2hWEY58gjX4LEbreBZVnHjdYMmcyzc180USo9m6OkgrCUzR2+3t3JvUOu57HzyONB+WPvx/EWFdKjkni8fT2qPWzivdgWzrHU841lYjXiiGH4yelGRkYcvyEOdrtN7AY4hQ4Hq9XiWAyVg9Vqg8kUvdFGGo0G8+bMF5ujxo++/7+oq9sfkuCaNm0WfvOb3yAtLQ0333wzdLrnxS5EEiEdCYikg2XPQ6/XQ6VSBVxZWczmzRsxdcq0mGRd3Pnmvz+Lurr9YnNYsKzdQ7zYbFafwgWOOSgE8WKxWPzOxBspwvIEUoE3WJs74dT7trlXuI7dRYP73hdiP6l9IFuwx0KZiJ14gUOUjIwYnb8jf/O28L4m558Au90Oq1Va7ITK5s0b8R//71tic1SZPWsupk6ZFlI2OC0tHRzHoaysDEqlCnZ7dP6IEbHBdzQgkggOHHcFCoUCCoXSMV9D8B37LBYz7vvkA2Jz1Jk/fyHsdpvPRd9CRZhXwiVIfF+uFsdaLQzDLzznzzcSFAo1Nm7cK9nnRYxUUJayuRNOvT+bq87lJK4Ldx+MLdhj9/PHMuXl5TGbZZdfFsAAgM/CCL8ZKWQyGYxGgzNjY7PZIc7whQvLspg/f6HYHHXu++QD6Onp9tk8JkZYUTstLQ0MI4fd3hO190xEn9jc4YmownGD4LgOyGQy2O0cGMa1+mswKBTKuNwsNGoN0tLS0dnZLq4KGY5z/TMUOgz6EyQWiwUIUuhEwokTjUhPzxSbAwZfqXqpgO9OKPW+m5H8D6sW1wW7l7JxEWZj3B97rDJu3DixKWrIZDIMD7sEifCbkYLPvIyAcXTatdv5hU6jgV6vhyaE+1e4zJ+/EGazybk+WiCEyfmMxhEwDGC1DoLjfC+jQCSW2NzhiajCcR3guEHHPyA+oPtaWVmKeN0sAOC1l9+EThP5EGWhzR1O8WIBw/i+XF2ZFwZXrpzHqlVrxC5Roa3tWsC2/0A3+cjqffWHcR76sfkXMgJiH/Feyua+D2Tzd+xuG4tMnDhRbIoaq1atwa5dOyCT8VMP+Mu8MIwMBoPRsYq7CjabzW/fqWDhWCteezk2mSUxwp+pnp5ucZUkworavb19ABjY7WZwXIfYjUgSfEcDImnguCsA+NEzfJNI8P05rJaRuN0s4Jj1sqMzGj94ziObEkiQmM0u8cJxHFSqyAWUFIOD/EKRAoHu59Gsl/KVqg9kExDXSflIIfYX74OxBXM8FonVaCMAzsnphMyLv+n+eaGzEwzDOOeIiUYTyrVrLcjI8M5cxorXXn4TabrgZ9qWyeTo7u52fkb8vZdIRki8pAAsex5w/BsaGTH4XVlZzNmzp0Pq3BspHMehu6dLbA4ZjuNgswnihR8q7U+QDA0NIi+vxOEb+U3WFyxrR39/L9raWtHR0Yaurg50d3egt7cLPT3d6OvrwcBAHwYH+zE4OIChoUEMDw/BYBiGwWDAyIgRIyNGmEwjMJlGYDabYLGYYbVaYLFYYLNZYbfbYLPxfYf4jR9JJWzwIQo8MzHunwF/zJuklxkQi4ZI9uHYfB3HG+Fzd/+8Xd+DHTYb/91YrVZYLBaYzWaYzWaYTCaMjIzAaDTCYDBgeHgYQ0NDGBoawsDAAPr7+9HX14fe3l709PSgq6sLnZ2daG9vR1tbG1pbW9HS0uLokxI7WJaFTCbDnDlzceHCWXG1E17o2MEwDFQqFex2Vwf6SGjvaI/K4wRLWlo6Ll25KDb7hF9RuxcyGQO5XOa89xLJB1NRUeG8kpqbm6HXx+/CEjAYGFRUVIjNAUnU6403Fst3kZ7+R1RWjsPJk41Yu/YTQc/xsn37h3j9lbfi9m/HYBjGJ+//BNauvVNcFRLvvfc2WJZFbm4xKivHoampHnfc8Umxm5P9+3cCUKK8vBJHj9biE5+4V+wSFWLVmZIg3NmwIbIZZ33xr3+9g0984k709HTjwIEDuP32u8UuTjZv/iduu+12dHd34cABfhThnXfeJ3YLia1bN+Htv26EXp8mrooJg4MD+PRDn8TqW28XV0lit9vx8cebsXr1GrS1teLo0SYolcH1mUllUi0GGwwMZV5SAYYpQG9vO+x2OyZMqMa2bZvELj4ZHh6KUjNOcPT29QbsExIskyfPQE9Pm99F5AS0Wr1jeDUb1EigSNi2rQnbt5/Ezp2nsXv3WezZcw7791/A/v2XcPDgZdTVXcWhQy2or7+Gw4db0dDQhsbGdhw92oGmpk40NXXh+PFunDjRjZMne3HqVB/OnOnHmTMDOHt2EOfPD+H8+WGcP2/AhQv8dunSiHO7etXi3JqbLWhutqK52YqWFitaWmy4ds21tbbandv16yyuX2fR1sairY1DWxuH9nZ+6+jgt85O19bVxW/d3fzW08Nvvb381tfHb/39/DYwwG+Dg/w2NMRheJjfDAZ+Mxr5bWSEg8nEb2Yzv1ksHKxWfrPZONjt/MayHDguPpvVahVlvVzZFiHj4p51MZlMPrMug4ODGBwc9Mq6dHd3o7OzEx0dHWhra8P169dx7do1NDc348qV2DZTMAyffbFYLJDLA9/+7XYWly9fxooVK8VVYWE0GtDb1ys2x4yOzg4YR4KfKXfbtk1YtKgGNpsdFy5kjQnhkqoEvnqJhCOTTQIcKV+tVu8YthgcLMvizNnTYnPMiFZaWGhzBgCOY51DoH2Rnp6B7u42cI5pzWOJVqtDUVEpCgqKkZ9fiLy8QuTk5CMnJw9ZWbnIzMxGRkYWMjIykZ6egbS0dOj1adDp9NBo9NBqddBotFCrtVCr+YXylEoVlEqVY+ZkBeRyucfGMDLIZPzm/vl6f9Sch827XrB5VvhrqhHXhbKXsvmr83cslGMJv7Cn3PlZy2Qyj++Bn65AAaVSCZVKBbVaDbVaDY1GA61WC51OB71ej7S0NKSnpyM9PR2ZmZnIyspCdnY2cnJykJubi/z8fBQUFKCoqAjFxcUoLS1FeXl5zNY2EpDJZLDbWRw92oiJE6vF1U6EvnUcx8Fs5o+j8bviOA7tHZGPRgyWM2dPBz1UGgBsNjtycnJgt7Mwm9vE1UQSQeIlBWCYcQAY2Gw2qNVasGzw4mXDhvtRG6WJ44Kh9VqL2BQmjLNjMsdxGDduEnbs2CJ2ciIswuiaqM630IkUz1mEfd/QQwm27r6+jgMhfZ7LKCV6pM4R790R1wWzl7L5qxMfi22jmfb22AV2i8UMhpGBZfl1jfxNt7BjxxbMmzcfLMt3nOebqX1f66EQvXtEYD7asjmkJjiWtUOj0YJlWVitkffdI2IHiZcUgGEKwTAZsNvtUCr5VV79zY4p5nBDPUx+RhZEk63bPwrpZuEL98wLy7JQKvmZhX0hdOblhc5kv0InUpqbL4lNAYOqe30gX1/4egwpUeKOr/M8O/J6IhYLUo8Ryt59C6YuGNto5MKFC2JT1NixYwvmzp0HjuOb4vx1gOc4Flqt1tGUZnGudxQpGzbcj/qGOrE5JpjMJly6HHxnXeGeqlQqYLdbYbfHr3mLCB0SLykAw2SAYQpht9shkynAca7ZZ4PBbDahoaFebI46JrMJ58+fE5vDghcvrsyLSqXym/5VqXhRx9+U/ftGyrVrV53HUoFUyuYLd99Qj33DO0mf52pWkqr3Z5N6bnFdMHspm3ud2MefbbQRyz4vLMtCp9M5+vewzt+MFHwTNS9eLBZ+gsgoaBcgjn+mGhrqQ75PAoDVaoPROAK73fckfkTiIfGSEjBgmHGwWCzOqe9DWXBMpVLj7X/8TWyOOg0N9c6J5SKFFy/83ZLjWCiV/BwVvnBlXlioVBq/vpGwYcP96Oi4Ljb7xD3ARhZsvU/29djex7zBZXc5SGVtpF6nuM77OULbu2/iOn8+UrbRREtLS1Qyl1K4ixeW9T/1gNCsxHEsOI51dO6NjnqJ15+pt//xt5DuA0ajATKZHAaDEQbDsLiaSDJIvKQIMtkkDA0NwmgcAsMwGB4eErv4ZP36DTjW1IhjTY3iqqjy55f/ELUbL8Mwzhl1WZaDQuE/m6JUKp2dWYU5KmJFR0ebZNCUsvnC3Te8Y97gsos76vp/MYF8pcSB2BZMXTB7901c589HvI0GWltbxaaowWdTdM7fkb9ZulmWhUbD/wkQrg+lUiF2C4sNG+6P+Z8p4X4Xyv1oeHgIMseClENDtCxAskPiJUWQy1djYKALIyMGTJ06H6dPnxC7+GXDhvvx0it/Epujxut/fSWk9uVAiEcbCfPa+BIwcrkCMpkMLMtCqVR63HSjTWdn4MyL+1PH6GUEDf/8/ItwvRax2PHcB2sLpi6UvdQWqk8qEyvxwmdb7A5BYgfAQC6XFiPCb0wul8Nmszl/i/4yNaFyrKkRf375D2Jz1Hju+V+EJFwA4PTpE5g3byHsdiu6urISMn8JETwkXlIEuXw1AB1GRkaQnp7pmIk1tOxCrLIvr//1Fbzzz7dDvln4g+8cyKepWZZfGgEA7HabyJOHH9KqAMdxkMn4zoW+hE6kdHd3Sja3BIO7L8e50vCe9kQcS78f4difLZi6SPZSWyCfVITjuJiNNmIdo/BUKqVjfTTXb0qM8BvjO67yM+vKZAy0Wt+jk0Jlw4b78dobr+ClV/4oroqYY02NIf+R4ufzsSI7OwdWqwVGY5PYhUgypK9eIgnRQS5fjeHhYYyM8G2zoa7evGHD/fjxT78fVQEjCJcbb/K97lC4uPq8uOZusdl8ixch48Iw/DnCIpbRpqeHFy+eQVJ4reLj+MA/F/+ErucVZ1dcBXd/l01c73nszxZMXTT3/jZ331SC4zh0dMRmQknht8A5Vmt3z2yKEbItnGOkkfD702p1YteI2LDhfvzl9ZejmoE51tSI733/WyH/kersbIdcroDVakV7eztYVvo+QyQP0lcvkZQolV9HX187hob6MXv2UjQ01IpdArJ06Y342jeexNe+8SQ6IpwsKpbCZfLkqWhs5N8fy7JgWQ4M438xOZVK7ZwdlfeNzVwvwvpEwXVg9BYy0TsOJ0KLzwkkcDyP/dk4CfHgbx+tLdDjpgoGgyFmaxvxE83xEz0K8734wmw2OSezE4YPf/DBJqSnZ4ldI8aZgXk1sibtjo52fOLutXjmP78e1v2ooaEWixYtgc1mRUsLqMkoBfB9BRNJh1y+EnL5SgwM9Dv6d3CiCdOCY8OG+zGhqhpf/cYTYWVhjjU14hN3r8VfXn8lrBtFMKSlpTv/LfKChP+36E+QqFQqWK38woYyGeNX6EQCx3Ho6fH83N2DZDwDpq/ndR2LxUnkx6Ha3Pfum7gu3H2wW7LT0dERpiANjCBITCaTU8j4wmw2O35rJufK7mazOWYLvG7YcD/+8tpL+No3ngz7fvT4Uw/j5pvXYf36DeLqgPDNwPzM2Z2d7RgZOSN2IZIQ31cwkZQolf+Nzs4W9PZ2oqZmDerq9oU0bNod9yzM3956DZs/fB/7D+7FiZPH0dLSjJaWZpw4eRz7D+7F5g/fx9/eeg1f+8aTeOY/vx72jSJYdDrXNOkWixk2WzDiRe1coZlhGJhMsVmXhONcojFQrHGvD+QLP/6+jsUEypzwx2IfvuwyBxY8odqCqfO3j+aWrLS3R2dpDSlMphHH74dfk0lokpWCFy8ymExmjz8A7r/JaCP8oRLuR2//42/YuetjHD9xDK3Xr8FoNILlPDvhDw4ORJRtgWN4dF3dPixffiMsFjMuXbJQ1iVFoFWlUxCT6UZkZZ1HZeVEKBQMGhsP4Pbb7xG7hUSwqyWrVOqYihYBq9WKDz98F3a7HTk5RaisHI+TJxswefI0TJo0RewOADhx4hg6O3swfvwEnDx5BNXVvn0jYePGN/Hzn7+EtWv5z5zvjsMHA+HYNaGXr2OhU7JwzNe7jvmyL3++DIlzpB4XEn7ixw7Wx/M4GjbxXsoW7b34OBl46623cP/994fcXyMYLlw4g/Pnz+Kmm27BqVPH0dnZibVrPyF2AwCcP38GFy6cxc0334qTJ5vQ2noNLMti3bq7/A6vjhabN2/0WN5D6Lyv1WqQnZWDnJxc5OXlIy8vHzZ7ZPf/TZveweLFy6FSqXD9egvOnDk1JmNKqsVgWlU6RVEq/xs9PdfR19eJtLQCVFZOQVdX6M1H7mzYwN803bcpU6Z72eIhXOA2B0V19Sz09rbDZrNiwoSpuHjxrNjViV6vx8BAJ6xWK6qqpuLCBd++kdLe7n+4dCR/oN3P9Tz2/aC+z3Ede5alsiu8wb+P57Evm7jel5+wd9/Edb72kWzuj5EsxGqYNACcP38WCxYsBMuyaG9vx+TJ08QuTi5e5H3tdjsGBwexfPkNQIB5YaLJ+vUbPO45d931KVRXT8WaNZ/AosXLMXHSVGRl50UsXHp6ulBePg46nR4WixlXr9oTEoiJ8CDxkoLI5SuhVH4DPT09aG+/hPHjp6OlpQVdXdEdqTB16kyxKa7IZHLngos2mw0ajc7vitrp6RmAY2SFTpfuc1h1pGzYcD8aGg44y4ECoHt9MMf+8D5H6kQp0RGan8su5eN5LGVzP3bfB2sT76U2sY94H8zm7pto9uzZE5OsCxzDnzMzM8GyLOx2OzIy+N+KFDYbX8+ydgwODkCl0vjt4BsPon0v6u7uxOXLF1FWVgmTaQTt7dcxMhK7PztE9EnsFUmEjUr1ExiNq9DZ2Y6urhZUV89DS8s1dHSMnmXcFQo5lEpBvFihUvlfUVuvT3NOrKVSqWG38zfqWHDw4E63PjWu9gf3uVsiwT2Y+guskft5nsTX8TaXX3ACxv1Yqj4Um/B4Uo/ry0e8heIrPi/eGI1GbNu2TWyOCna7HSzLQq3mZ57mOBZ6fZrYzYlrMju+j4lcLkN2drbYLWXp7OzA1auXMWHCJDAM0NfXjStXWinrkmKQeElZVFCpfo2+vpno7u7AwEAvpkyZg9bW62hri136OZ5UV0/HsWP8CrRWqw1yuRycY54KKVQqtXO4tMyxkJx723k0MZlGcODATrHZg0gmofOHPz9XnXgeGkh01PU+dpV5o6/HC3TsyyauD8XmXheKj9hXapOqiyfbtm2D0WgUm6OC8BuQyRQwmUbAca61wMQIvy25XAm73QaO4/Dxx1tQWhp6f4hkpL39Olpbm1FVxQuX/v5enD59AWo1rWWUapB4SWEYpgAq1U/Q09OGtrYrMBrNmDJlNjo7u9HS4lr5OFVJT89wGy7NzwoKcD6HQMvlcuj1abBYLM4p0GO1wNqGDfdj48bXnOXQg13gDI37Y/p7/FDqpAWMlNDh7a5jvuzrNUkdcxICI1C9P1swdWIfqc1fna8t1rz88ssxazIyGIYhk8lgtVoxPDwMuVzmXG5DjPDbstttMBiMYFkWFovF2SSbyrS2NqOtrRVVVZMBR7br9OmTJFxSFBIvKY5MNgcc9wb6+nrR0nIOw8MjmDRpFvr6hnD58gWxe0ohNAMBgNlscQyB9r+idnp6BsxmMywWfl6LWC6w5tl05MI92AUT+IL19+3nW1RIld1x1YUiYFyOvp5X6pgTiYdg6n3Z/NW5b8HUBbKJ66NNLJuMAGBoaBAymRwWixXDw0M+1zSCc2VlGSwWq/N3JvwpSGWuXLmEzs4OjBs3ATabDUajEb29XVAqpf8IEckPiZdRgFx+J4aH09Dd3YWrV8+ip6cLEyfOxNCQGWfPnhK7pwwqldoZKC2O+VtkMpnfFbVzc/PR29sGk2kE1dWzQl7AMhSCaTpywXgEP+9AKJ2J8fZzEbjO5eD53J4nuorBChjPx/D1vgIdcxICI1C9YBPXSdn81QWyBVMfLWLZZATHgoOLFi2G3W5FS0sLZsyYI3ZxwosbOWw2OwyGYSiVSnCOldpTlfPnz6C3txvl5eNgt9vR3n4dnZ1taGubIHYlUggSL6MEne4KOK4bnZ01uHbtItrarmDChOkwGi3YtOmdsGbiTTRyuRxyuRyVlRMxMNAFq9WC6upZOHPmpNjVSW5uHmQyfmmAtLQsWK2WmC3QuGHD/diyZaOzHElAcz/X3+OI6/ydx5ddRk9fT2dXMXwBIxSDPRbwVS/2DdUmrgtkC6VeaguXv//97zFrMmJZFlarBZmZ2c7FB3Nz88RuTs6cOYlFi2rAsnb09PTghhtudP4OU43u7k5s2vQOBgcHUFpaDrvdhuvXr6Gl5TI6Oy8A+FB8CpFCkHgZZSiVr6G39xFcu3YFLS1nUVFRjTlzluPgwb0pKWI0Gh0KCsoAR/YlkCDRaLTQaLSOWUJ5m1TTTrRobKyF1cpPoe6OezAL5liMbz9vccHDG8V14rI70RIwYhET7DEnIRSC9ZWyuW/B2kKp97eJzw0Wi8WC/fv3i81RQ7j25XK5s/+XRqMVefEIQicrKwt2ux3Dw0PQavVIS0utJiNBtBw8uAezZy/AuHFVsNvtaG6+gqtXc8EwvpudidSBxMsoRKn8DoaHn0RrazMuXz4Jk8mAZcvWY86cpU4R09bWGrNhxNGkunoaGhv5m7vZbAooSGQyGXJz82A0GmAyjUAmk6Onp1vsFjW6utrdVveWbvoJFn9BL5Q677LL4K+OLzuPHMJEXMc56jwfy9dzhHvs/vjiYylbMPVSNqn6WGy+uH79Oq5f9z/hYST09HRDoVDCbDajp6cbSqXK57pGwm9KJlPAYBgGxwFbt36Aqqroz1Idbex2O9raWt1Ey0IsXXoj5HIFBgb6ceHCWbS29kOl+pv4VCJFkb6KiZRHqfw2zOavoqXlAq5cuYQrV07DYrFg+fL1mD17KQ4frsWmTe84p+I+f/4MLl06j6tXL6Gl5QpaW1vQ1taKzs52dHd3ore3BwMDfRgaGnQKA4vF4hxOGStyc/Occ7sYDEaYzYEFSWFhCXp722E2GzFlyhwcPx76Ym/BYrVanKtfw0cgDvZYTCh1gcq+mo/4sqfBsyglYHi7Z1l4HCm7qxzOsYCverGv2CY+lrJFchzuBgD79+93Ln4YC44fb8T8+Ytgt9tx9epVzJw5V+zihBc3LqGjUPBzJvlrZooUjuNgt9tgsVhgMo3AaDRgaGgQAwN96O3tQXd3Jzo729HW1orW1ha0tFzB1auXcOnSecCRjd28eSM2bXoHhw/XYtasBVi69CbI5XL09/ejufkyTpxoRG+vFVrtMTBMpfglECkKrW00yrHbd8Nq/S7s9t3IyipEdnY2tFod9PoMqNVaDA724vTpRseEVCwAxu9EcP5gGMa5ro7nnl8jx/2Y37uOAWDBghrk5RW4PSKfyt606R1MnDgDZ88ew7Rp8yCTyXH+/HHcdttdHr4CRqMB27ZtxvjxU1BQUIq6uu24445P+vzHGSn9/UN4/vm/Od+H+3tyrZ8jXifIVXD3d5V5m/s5rjopX6EcXB1f9igGqBe//kB10q8jXsdStlgdi8viOn+2u+66C3K5dDNOpLAsi3/96x9Ys2Y9zGYTdu3ajtWr1/tcYPGDD97FggULodOloa7uAObNW4C9e3fh9tvv8frtdHd34vBhQbQLmTjOeeyZuXM1LbrvxaI5WGQyOQAODCODTCbDlCkzkZmZCZvNBqvVCrPZjK6udnR3d4Bl06FWvwu5fKX4YQg3Ui0GGwwMiZexAi9ifgW7fRsAI/LzS6HXp0Gj0UKr1UGlUoNh+JSxcLM5eHA7liy52UOI+BMl3vi+gbkfHzy4HStWrMHBg9vBMAxWrVrrcYP94IN3MWPGAjQ07ENV1bSAgoRlWWzbthnZ2YWoqJiAurodfm/akfLhh+9h794r0Gp1Tpu3iBA+N6dVFPDE/pA4x2GV9BXKnob41fsXWp7v1XUsLkfjWMoWzWNx2V+dVFmwGY1GFBbmY80a6QUSI0UQ8evX34XOzjbU19f5/c3861//wNq1d8BsHsHOnR/jllvWoq7uAFatWuv0MxoN2LHjI3AchyVLbsbevVvido9YsmSV43F4kcQvdcBnbcxmM/r6utHT0wm+NTwLavU/SLQESarFYBIvYxIj7PZtsFpfdgqZnJxiqFQqKJUKyGRyKBT8yIKLF09j4sSpbgHLM1MiHLvbPHG/KXnb4LgxXbhwGvn5xZg4cTbsdguOHt2Hm25a4xQbLS1XcfToYdhsVpSVVaG8fALq6vz/izx8+CCGh00YN24ijh8/hDlzFqC8PDYp440b38Svf/03rFp1u9PmLTDcPzO+7BnUxGKGt3mWhWPPz1pUjEI9fD43X/Z3vtT74O2e5dQ5Fpf91QVTFmzvv/8e7r77rpiNNGppuYqmpiO46abVuHTpHJqbmwNmK2+/fQM6Otpw6FAtlEoFZs2a7/zdGI0G7Ny5BXPmLIRKpcalSxdw/Xpz3O4RVVVTwTB8kxvL8kseWCwWdHVddxMsL0IuXw3A9UeCCEyqxWASL2MeXsjY7fUAzABGwHEmABYAJnCcGYAJgNntWLDzZZc9vKYmdzIyclBZORkajRZHj+7D7bffA7jdWFmWRU5OEcaNq0JTk39B0tbWitravZg6dS5UKg1Onz4S0xWxW1qu4eWXP3QLVK4gLr5xe9/c+bI4yHkLIBehCAh41Qc6X7D59wnv9fkSN97leB6Ly8Ech1N2t918843IzS0WV0eNzZs3oqZmKVQqNXbv3oH58xejuLhU7Aa4CZ1Vq1bj4sVzuHLlMux2u8cfhE2b3sHixcsAyHDhwll0dXVEafFTmWhjAMgci0FKbVbIZHbI5YBcLgPHvUyCJUJSLQYbDEzydNgNtf0zVH9CCh3k8juhUv0QKtXPoFL9Bmr1i1Cr/wK1+m1oNO9Bo9kCjWYXtNqD0GobodWehk53CTpdK3S6Huj1w9DrbY5tGDpdj6PuErTa045zDkKj2eV4rPegVr/teI4XoVL9Bno9B52uG0NDDK5cOQOlkp+cThjWrdFowTAMqqqmobe3HSaTETNmLEBT0xHxG3JSUFAEuVyOkREj0tOzYLNZYzq66vDhfTh8eJ/YDMDVOTMQ/vzEdf7L7v9iHRavsqeBc+tE6rJxzn+/fNmj2qNefL7vc92bCaTO8zyW8ovGsXjz5RfsOVJlf9vu3buxZ89u/qQYIMzpkpWV7exYX1BQJHZz0tR0BDU1S2G329DR0Y4lS5aDYRjnsOru7k5wHKDT6XH16kX09AxAo7FCr+eisNmh11uh15uh149Arzc67iWD0On6odP1Qqfrhk7XCZ2uHTpdDzSafiiV/ZDJeiGX30nCJQqI7wmBCNU/2iSNeCFSHTkAPRgmBwxTAoYZD5lsCmSyOZDJaiCXr4Rcfivk8k9AobgXCsVDUCgegVL5FACAYXKh1Z7F0FA/LlxowpIlNzs7BMpkMigUSuf6KmazGRkZeX4FiVwuR0FBEYaHhzEyMgyZTO42pDn6bNhwP3772x85g5g/3H38+YtvDmJf/+XgBExwz8E5ttDqOU54D646V73nc7vXefp5H0v5hXIsLgdzLFUOtEn5C7b//u/vxqy5CAA6O9uhUChgNlvQ2dkGhULpc6I5Qejk5OQ55ncZhlKpQlpaurN/TENDHdatux2XLp1HR8dqqFS+Z7kmiHhA4oVIGhgmFwDQ2Xkde/du8aibO3chTpw4DDjme7HZLJDLFX4FSWXlBHR3t8JgGMT06Qtw5MghsUtUEWdfhGAlPvaH2E9cdiFd4ekfWMDwNk+j2MdV5pyPKX5vfNl3vW+B4y1i3I+FsvRjetcFcywuSx2LN3FdqGV32549u7F3b+yyLgBw5MghLF68FDabFRcvXsS8eYvELk4EoWOz2Zzzu+zZsxNTp850+nAch3/9ayMuXDgHjsv0OJ8gEgGJFyLpmDhxKpYsuRnuAbqgoMg5q+7Q0DAMhgFMnz7fryARmo6MRiPS0jL9ZmqigZB9CQYhmImPpcruiOvEZW9bKALGVSH2cQ/A7iJF7OOr3nW+q86z3vX83nWex0JZyk+qTupYXA63Lpiy2Pb978c26yJkUtLTM2G1mgM2GR05cghLliyHxSLM76KQOIfDww9/EStXrnL0cSOIxELihUhC+E6dwk0fjmYghUKJSZNmYmCgE0bjMDIz8/0KEqHpaHBwEEYjv7Kuv0xNNDh8eB/q68XZF76Hpvv7ERNKXaCyN/6EhtjGOTbPwOvp4yxJZm1cJs/+LZ71/POIsy4uEeMpcMSvJZy6YPzEZX91wZTFtnhkXTo72yGXK2C1WtHeHlyTUW5uHmw2G1paWrBixUqoVCqPczgOYBzDoPlO+gSRWJJGvIhvgoEI1Z9IHfjRGAyEICowb94iXL58GgA/R4bFYgooSCorJ6C/vwPDw0OYPXspGhpcs+HGAunsi+t9uF+2/i5hcZ10Wfpxpcq+BIyUzXHkfHzfPkJZWsS4lfxmdsTnu14Xf46nr/hcVznYOuFYXPZ3XjhlKdsPfhDbrAsANDTUYunS5bDZrLh8+VJQTUYmkxkWywgsFjP27t2NOXMWijw5txFkVlEdMRoQ/4YDEap/tEka8UIQ7vD/8Dxt7k1HAwMDGB7uw4wZ/vuyuI860mh04Dh+5EQskc6+BEbsx5ddxnDqPW3eIgMBz+Mkz/N+bOFmJmzePnzZX71vEcPXufuKz3WVI62LRlnKtnfvbuzbF9usi3Bt6/XpjiYje5BNRhZ0dPBCxrvJiH/9QuaFnyaBIBILiRciCRH+4blFGY+moxkYHu6BwWAIetTRwEA/hoZ6MWPGAtTVxW4VXzizLz8Um50Igc3zmD9wrwsGsb+4LGUTZ0F4m0dR0uYSF64Kbx/BJvhJZ3zE9Z6fiefzuOoEEeP5/J7nusrB1MWi7Mv2b//2ZMyzLnV1+7F48TJYLGZ0dATXZJSVlQO73Yrm5mYsX36jV5MRj9sHiditxUQQwULihUhahCDgDt90dAYAYDAMw2w2Bmw6mjixGkNDPTAYhpCZWehX7ESLULIvodSJy7zN0yjt412WEiJSfmJ4m3Cut/gQfFy2QKJDeByp9+Gqc6+WEjie9a6ycCwuS/mGUhY/ni8fjgP27duNM2dOuRxigCBGsrNzYLPZcPnyZcekctK4hlOb0dXVBbPZjH37dkk0GfHvwdXnhZqNiMSTNOJFfOMKRKj+ROrAONdC8f6O3ZuOOjqaMTTUH7DpKC+vAHl5BY45X4YCip1oIGRfxAFN6liMuE58rYvreQL7+LZxbpu3nxCAfdv4c8UCQ/DzLAcSHf7qvZ+Dr/fl778sHIdblrK5l939vv712GddhI66ZrMZ3d2dYBjGa6FTd44cOYRFi5bCarWgo6MNcAggcZMRD/V5Ge2I7zOBCNU/2iSNeCEIF75H5whNRxMnTgcAGI3DSE/PDZhNmTp1Bjo6mtHf3xWXjruQmPdFjDgIuhNOWXwzEfsEZ+MgiAQxEiYJm7v44Cv51yby4nhf1/N5fx7uj+NZ7yuT48vf+zWEWxZs7uVAtnhkXeDoqLt4MS9Gzpw5hZqaFWIXJ0KWJjMzC1arBT09PViwYLGPJiP+ffB/KkDihUgKSLwQSYp05gWOpqOLF/lRR8HOoCtkX4aGBqFUqsGyruUHYsWGDffjW996DK2tzU6be0AUIxYMnsXAWQ3eJgRwoeztF7xNLES8RQHv58/m+1zPsuAjlVlxrxc/hvtrlPL39XieZcEWqByqrbn5Kj772ftinnVxn76/qytw1sV9OHVHRzsADkeO1Es2GfFwjt8kQ+KFSAqSRryIb9yBCNWfSC2kFrQTKCgoAsMA48dXo7u7FcPD/ZgzJ3A2xZV96cTcuStQW7tX7BJ1Fi9eim996zEPG3/puoKtd51vxPXissvGOZ/DZfMkPBv/uOLMBxx+4vM9bdLnep/nz8ffY/B1fL3nOYK/cIpnvadNXA7mHF+2T37yNqxYscpVGSNqa/eipmYZrFYLzp077TfrAtFw6uvXW7Fs2UrA8dvyhfCb5LhoLMZIJBvi33MgQvWPNkkjXghCjK8fh1wuh1KpRmZmPuBYdVqrTQMXYBh0Xl4B9Pp0DA0NQqXSBPSPFocP78Pbb/9ZbHbi420CXnV8QewvLnvaOOfm38/TJrZL2Xi76/HFwsHTT8rmfp5vH5eft4+veikh4zjD5zmuxwxsE5fFNo4DXn31jzh7NvbNRULWRa9Pg9VqQUZGlt+si3DN63RpsFrNGB4ehl6fhoyMTMkmIzg+Z9coQBIvROIh8UIkHa5J6nyzaNESNDUdAAD09fWir68Tc+YsDZhNmT17AQYGBtDX14G5c5cH9I8GGzbcj//5n2dw5IgrM+Qe9DzxFhmeZVfA9bBKPJ63zT1ouyrFQdjdLkbK19vGP76v53LHda7L1z1D4unn20dc77JBdI7na3EXMoK/9+P6t7mXBVtd3X788IffiXlzEZxZl6WwWCwYHh4KmOmprd2LpUtvgMViRlvbdTAMsHXrB5g5c67Y1Qu+0y6JFyLxJI14cb+pBEOo/kQqwS8P4I+8vAIoFCpMn74QQ0M9GBoagE6XCS5ANiUnJwcjI/0YGhqAWq0P6B8t1q/fgP/3/x5CZ+d1p00cSN3xX3YFZw+rxE/CPaB62/ig7R7c3YO/p68nUnb/Ns/nEf9+vc/1zpB4+3k/llDv/l7Ejy2c432e+DWKzxM/v7StufkqHnro7oAiIhq4si78pHTXr7uuLylck9jxWZqWlmbceOMtUCqVfrM1cAoXkHgZpYh/k4EI1T/aJI14IQgxgX4bixcvxenTDQCAvr4+R18W/9kX90nr+vra45Z9AYBly27A008/BLNZemE71/vlD8Tv37Ps20dsE+xifNl4O+exeQoJd7v4EaRfg7RN/Ji+/Hhff36ej+V+Htxeq5Ro8jxPOMf7PPHzSb0GXrh86UufiYtwgVtfF36G3Lb/396dB7dx3nnC/zYA4gbvQ+Ip6qKogzpIiRQl2rIS31eUzGQc20nsGcexx3LGs4oz2U3eyXrLqcxO1lWzE6dqNzWTmWQSJzUzXuewE5+Sbdm6Zdm0JYsSRfEASOIiQOI++/2j0SDQAEncDZC/TxWLxNMPDoLNfr54nqefxuysXVglzqlTx7F37wB8Ph+MxmkEAgG8/fab2LOnX1g1TvzbtvBZfYQUStGEF+FBZSnp1ielaPG/cW1tPaRSGdat24K5OTPm5mzQaKrALtGbwi9aNzc3C5WqfMn6ubRmzRr84AdPR28Ld+P52/ONaaz423zjGlsW2ZJGWXbliwWbxNeWeP/YslTvu3A9rk786xE+J7899hiy2P1in3P+vrGPN//1D//wAzQ2tsxvzKP4uS4+XL8+smgI4fdxrVaHQMCP0dER7N9/E8rK5Ev2uiCyzgvX+UI9L8tRum1quvVzrWjCCyHxlhg3iujr24+REe60abvdDrvdtOQlAPjTpu32GVgsBuzYUbjeFwD4z//8acwE3uSNNL8t/nakNOGYEdvoxpQm1IttjLMvF0peNzYozH8lq5tYJrxvKvViSpMGj/j7zoeR+ecQ3i/5fefvx9/35z//CX72s/87/+B5durUcfT29kcvBbDU6dGnT7+Pnp4++Hw+mExcr8t77x1bNPAkYqjnhRSFogkvwgPPUtKtT5an2tp6lJWVYe3aTtjtRszO2lBeXr/konXd3b0Ihbyw22dQVqYAy+Z/3RceP4H3wgV+Ai/XMMZK5XaystgGd6F6fHky6ZQv9thLl3OvURgcYuvFPgZ3O7bufJiIr5f4mIs/7zz+ORYLLLH3jb376dPv4wc/KMwEXcT0uqhUGvh8XszM2HDw4G3CalHCRemuX7+G/v4bUprrwuPnvNCp0suT8P9hKenWz7WiCS+E8PiVPFP95+jt3Re93tHsrB1O58ySi9ap1Rp0d/dicnIEFosevb234vTp9+B2u4RV8+LOOw/hyBHhBN64KpHb8Y2wkLAsWWPLN7ixt+Mb8EzLkz3nvHTKubJkz7lQXSR5bcnqJdaJrTcfRPh6848f+xzz9ebvy5dPTIzioYcKM0EXkaUBTp9+D/v3H4Df78PsrB033PAZqNUaYdWo2EXpzGYjAoEATpx4F3v2LHzto1jc+8Nb+EMBIYVSNOEl/p9jaenWJ6WEX8kzNVzvixzt7ZswMzOF2VlrSpcA4IePZmZm4PHMYfv2vTh69FVhtbyJn8A733DGmr+dfHu6Zbkt5xp2YQO/dLnwcebxZfPlyR4jvu68VOoJH28eVy/+tSZ7PXwdlmWh14/h8ccfxMDAZ+IeK5+OHn0Ve/b0QyKRYHZ2BmNjo8IqCc6fP4Xu7j0IBPy4dm0Ye/cOpNXrwuN6Xyi8LEfC/4elpFs/14omvBCSjd7efRgdHQIAzM7OgmGYlC4B0Nm5FVbrJKxWEzSaarAFnLyLhAm83MFAeExIbHjjtyPJffgyMcuF2+bLud8jMUjE32Hhx0h2/+T1Fg8i83WEzz9fL/F5Yu//v//336GpqXW+IM/44SK1WgO/34eLFz/Gzp0LLenP4e+j1epgNpsQDAZw8uTxlHtdePOnSnMXRiVETEUTXtJNcenWJ8sbt+5LGdas2QSLxQCbzYze3luWHAqa732xwmyeKNhlA2L953/+FGfP8hdw5PZr4e4df3uxBju+jC9PZrHyZNuWKl9sm1Cycq4sPnAs9bvOl8+HEOGxYb5eKo+5VOCZv/+JE+/g5z//SfyD5NmpU8exe3dfzAJzi0/SFQ4xjYxcRX//jRn1usyjnpflSPh/s5R06+da0YQXQoTS/efo69uPsbErAICZGStcLju2b+9fciiIm7zrgc3GT94tbO8LdwHHr6UZYBBtRPn60dKEesIGeOlyLLJN2MAnhgJh+WKPlWp5ssdeqG6y1zhfb77u0oEn9jG4elz5yZPv4tFH7yvYBF3E9bpo4fN5YbcvPkkX0SGmfZBIJDAapyJzXd5Ju9cl/v2h8ELEVzThRXjwWEq69Ulpme+iTh1/5tGGDV2w2aZhs5lTWsdFrdZgz579mJubhck0gb6+wk7eRWTBvYcfvhXPPvsUgsFAXIMbK77xjS2LbaiTNfSZlSffFvu8ia8ndlvk1iKPlax8oceJLxM+DvcYqdZN9rjC18FVmH8MQK8fw3/7b9/AfffdUdB5LnwPyr59N8Lv98Futy05SXc+7Kjh93vTXNclEbfOC815Wa64/T516dbPtaIJL4TkQm/vPly79gkQueaR2TyR0jouVVVVUCqlsNlm4HLNYvv2fUv22OTaoUP3wedz4PHHP4/ZWVtcQyuUTlkuypHhtqXKhdu4MmGAmA8VyevHlSQJIcnqCh83/oHnX9/8a9Drx/DNb34ds7M23Hnnobj6+Xb06Kvo6dkbnaRrty++ki6SDDFltq5LMhReiPiKJrwIDx5LSbc+WRm4uS9ybNnSC4fDCpttBlKpLKXJu93dvXC5bDCbpyCXq8Eu0WOTL6tW1ePBBw9idPRqpGThhlsosTGfL09msfrJypHhNr58sW1CycuFwYT7WujxubJU6wofmy8Hrl4dwv3334maGu5K5oXE9aCwUKlU8Ho90Osn0NW1S1gtDn8ftVqD2dlZjIxcw4EDt2Tc6xKLjr3LU7p/13Tr5xqFF1J0MhgxisNd8+gcVq9eg+npMVgskykNBanVGvT13QC73YapqevYs+dmnD79/qL3yZcdO3bhgQduwsmTR2NKkzesyf4VFipLVo5FtvHl3Db+ubmvxMY+cZuwfLFt8eULvYaFypM9Tup1kz82t+348TfxhS98ZsnAkA/8cFF//w3w+bwwGifR33/josNF80NM3CTdjz++gL1790dPsc7U/FCu4M0iy4Lwf2Yp6dbPNQovZNmZX3V3C5RKNWZmrHA6bSkNBfHDR2azCXa7EX19t+DYsddECTAHD96Kxx//PH71q/gzWoQNMNcIx1WJ1kutPLExFz4+/xzJHg9JHzO+PJ1tXFny15EsmMzfR1iW7PdZ6Hljg8z8hp///P/i8OGHcMMNhZvfwnO7XTh27DX0998IgIHNNgOfL4CyMrmwapyjR1/F7t3cEJPROI1gMAittjzLM4xiJb7/pPQl+79aTLr1c43CC1mWDhy4GadOvYqmpjVpTd5FzNlHZrMJLtccduxYOvTky913fwHf//5f47//9yfjrka9WOO7cIO/UHmixMefl7zxz802oYXLk/9eCz3HfHny+kJ6/Ri+/e3DeOaZb4kSXBAzzwUAXC4njMZpbN26XVgtTuw6MD4fN0l3YOAmvPXWH5c8Myl1Sd4wUvIWOhYsJN36uVY04YWQeVmOG0WGgPr7b4xetJGbvDuO/v7bUho+Ghg4CIfDApPJALlci6am9bDZrMKqBXHo0H0Ihdx45JE74y4ngEijLLRQg7xUebrbEBMihMFosdC02LbkoWTx1xFfnvhY/GMsVj/2eQ2GcTz55ENwu50Fn5jLs9msaGxsgVLJzXMZH7+O7u7elIaLBgZugt/vw/T0JILBAN5//50lh5rSk+SPQEqe2GEkXUURXjQaFh6PR1i8oLm5OTidTmg0pfVmk8Kqra2HXK5AX9+tCAS4dVx8Pi927Fj6MgDx819GsHbtVgwNXYHT6RBWLZg1a9bgvvtuxAcfxF/2ILVGfelyJN22UBiIDwX8/ZI9brbb4p8vWcCJry98LK4s8bUnq3/u3Encddd+tLS0xT5EQTmdDgwNXUJraxt8Pg+Mxmn09u5fMnzwa7owDIPZWTuuX7+Gm266NSeTdOPRCrvLjUbDYnZ2FrOzs8JNC/J4PKK2wUURXgDA5/MhHF76n4IPLgpFQLiJkAQHDtyMs2ffRHPzWkxPj8FoHIdKldplAKqqqlBXVw2TyQij8Tq2bOnD4OBH8HpTD9q5tm/fDXjkkTvw7//+z3ENN+Ia+3iLl8c36IkBQXivhUMCL9fbFnu+hX6H1F57fP0XXvhnPProfaINEwGA1+vBxx9fwMaNnWAYbp5LMBhccp7L/FWmVfD5vLh06RPs338Ab7/9Og4cuFlYPUtJ3lhS8tIJMOFwGD6fT1hcUEUTXjQaFnq9HkajER6PJ6ELi2XZaHAJBumS7Msb97cX7gOZ4IePrl27BACwWi2YmhrB3r23pnQm0bZtO6FSyWA2mzAzM42tW3vxwQdnIwvJiePOOw/hf/yPb+Chh27D2bPHF2i4F2rQheXCBj1RKtuEYSD2+RKfM5ttyV9P8vKFHiv+PqdPv4edO1vwve99U9TgEgwGcOHCWXR2bgXAwOl0YGbGis2btwmrxoldwM7r9WJyUp/z4SLu/ePR8Xe5YpiaaICJ/5tz+4DH44Fer4fBIG6vC4opvCASYGQyL8xmM/R6PcxmM4LBIPR6PfR6PWZnpVAoAqK/aSS/hA1Ttvjho717b4fX64DFYsLcnDWlM4kkEgl27+6Hx2PH9PQEHI5ZdHb24OzZUyn1FObLoUP3oaWlGQ8/fFskxPCXFpiX2JgvXo4ltyULAvNfi9934cdOb1vs8yV7LcnuE7lntJyre/r0ceza1YIvf/keHDhwi2jzWxD5JHvu3Cls3rwNLMvC7XZCr5/A9u3di4YP/oykgYGDYBhurszo6Ahuuik3a7rEEjZmZPlRqy3RHphkbbDFEoZKFYJabRHeteCKKrzwNBoWanUYEokbJpMp8maFi+INI/k3vwx57hw48FmcOfM61qzpwMzMFKanDfD7/SnNf5HL5ejt3Q+rdQqTk6Pw+QJYv34bzp49KfoBPRchJn5bfDBI1mOBBe+79DYssT2VbULx94l9vcLfgcP1tLTiK1+5V/TQAgAsy+L8+VPo6NgSCS5uTEyMYefO3YsGF8TMc2FZFna7HVeufIp9+w7g7bffyPlwkUQiyfn/JSlOpdAGF2V4iUVzW0gu8MNHw8MXUVVVD7PZgOnpMajVtWBTmP+i05Wjp6cXs7N2GAzXEA5L0Ny8FhcvfiSsKorFQ0yyhnyhRj7RYoECCaEi+eMu/byJXwtti3/MeAu9VpZFpKelFV/96r246SbxQwvv0qVBtLW1g2EYuN1ueL1edHf3LRlc+Hku/BlJIyNXoVZrceJE7oaLCCnWNrjowwshuVJbW4/16zeivX0ztNqKyPyXa9i797aU5r/U169CR0cHbDYrJidHoFJVIxSSwmw2CquKRhhiDIZxYZUFG/iltgFcL0GyQDEfKha778KPnfm2pUIOoNdPoLu7DV/96ueKKrQAgNVqht/vh0KhhMfjhl4/hubmFsjli0/QnV9590b4fB7YbFYwjATr13dg7doNOR0uIqQYUXghK8qWLdsxOTmM5ub1CIf9sFhMcDhmUpr/AgAtLS1oaWmE1WqGXn8FbW2dGBvTw2SaFlYV1XyIuRVnz76XtOFHTDAQlMY0/sJgEKmxSKBARttjQ4dw27x0t505cxyf//yNRRdaAMBsNmJk5CoaG5vh8bgxM2OBVCqFQqEUVo3Dz3PZt++myDyXGej1E2hvX4+JiVGsW7dReBdClh0KL2RFYRgGu3f3wWQaQ11dI1wuO8zmKQSDwZTmvwBAR8cWtLQ0wmQyQq8fwsaNO6HXT0GvT+zlEFtv7z48/PDtePjh23H06CsxZ/LFfy02FIOYYJDMfGhIfNzEx078SuyxEW5Lft/k27j1J9544xX09KzBQw8dEvUMooUYDBMYGxtBW9taAGz0lOjOzsXPLEJ0+X/uGkUejwfXr19DW1s79PpR7NjRQ8NFZEWg8EJWHJlMhp6eXtjtJlRV1WF2dhZTU6NQqWrQ2LgeZvPi818QDTCrMT09Bb3+CjZs2AGz2Ybh4SFhVdHxvTDf+MZ9GBhowze+8SW8/PK/w2AYRyDgF1ZP2oMxvy1ZYJgPDovdF1luX2hbIOCHXj+O3/3u37FnTzu6u1vwV3/1UFH2tgDAyMhVGI2TaG1tB8uykctQOLFhw6Ylg4fVao6svKuMDBdZ0NjYjKmpyZTmyRCyXFB4ISuSSqXGtm07YLOZIZdLYbGYoNcPYd26rbh27VrKAaa5eTWmpgwYH7+MtWu3wun046OPzi/YgyGmQ4fuw+2334vKSh2+/e1HcNddu3DnnbvwN3/zCI4efSVm8b3FejfmxYaJZL9u8m2LPXb812LbPR4P3nzzD+jv34Bdu1pwyy3d+K//9TAOHLgZd931+aIMLSzLYnDwA9jtNjQ1tYJlWczO2hEKhbB5c9eSwcNqNePq1SE0N7fC4+HmuVgsZly9ehmbN29b8v6ELCcUXsiKVVtbj7a2NVi7diskEiY6DNTZ2Yvh4eGUJuJu2rQFzc2rIgHmU7S1bYJCocHJk+8W9WKKhw7dh7vu+jx6e/shl0vwjW98Cfv3r8GTT34JR4/+IekqwsnDCG/xsDG/Lfn9F39srpwPLH1969DT04qnnnoIAwMHcccdnyvawMILBoM4efJdKJUqrF27AeFwGDMzVgSDwZR7XK5c+RTr1m0AAMzO2jA9PYV16zqwYUMnTdAlKw6FF7Kibd7chenpEbS1bQLLBjA1NYnJyavYsqUPV69eTbkHpqVlNYzGaYyPX0JNTTOamtbi7bffgMfjFlYvSrG9MlyQaceTT34Jv/71P+PcufcxPW2A1+tOEkb4gBIvlTCy0HY+qExNGXD27Pv41a9+ir1712H37jb89V8/XNS9K8l4PG68/fbraG5uQ11dA9xuJ6xWC/x+H9asWZtScBkauoT16zsAAHa7DQaDHu3t6zE9bcDateuFdyFk2WNaW1ujh4/x8XFavZaIyuVi0Nm5HatWteDYsZdx6NB9wio5x7IsTp8+AY2mApOTo5DLNWhqasWqVe34+OP3sXHjRtTVNQjvlmBo6CImJiZRX78a9fXNAEL48MP30dc3gMrKKmH1kvDSS78GwK0lUllZjebmNVi3rgNtbesiv2cjamvrUVNTD5VKDYlEuMBg/PGEYbj3m2VZeDxuWK0mWCwmGI1TMJmm8C//8iN4PB74fF5IJBJ4vR7I5YqSCSpCdrsNp069i507e1FWVga324WZGQtYlk25x2Vo6BI2buyMDjNNTIyira0dZrMJ27btXPIxcuGll36Np546gsuXL+PVV1+hdoKIyuViKLyQ4iJGeEFkefZTp45DLtfAap2GSlWBpqZW1NY24ZNPTmDjxo6UAszly1yAqaqqRmNjO5RKBc6ffxfbtm3HqlWNwuoliw81iFkRWaVSo6amHrW19aivb0RDw2ocPHg71q/vxOc/P4BAIIBAwIdAwI9AICDovUFJh5Rkpqcn8fHHF7BrVy8AwO12RhZDZNDRsXnJ0GG1mnH58kVs2sStvDs7a8fY2HW0tLTBYjEteemAXKLwQooJhRdSdMQKLwAQCoUi8xK0sFqN0Omq0djYhurqenz88QmsXbseq1c3Ce+WYGJiAkNDQygvr8Dq1W2oqKjGRx+9j8bG1StuDY6XXvo1enr2oaWlRbhpWRsZuQq9fhybN3cBYOFyuWCzWdDc3Ira2qVD8PT0JK5du4JNm7YCYDE3N4vr16+hpaUVJpMxpUsH5BKFF1JMXC6G5rwQwpNKpejrG4DH40B1dT3m5qwwmSYxO2vD1q19MBrNmJycEN4tQUtLC3bu3Amz2QCD4Toslkns2HEDrNZZnD9/uqgn8uYad5r2ygkuwWAQH3xwGhaLGR0dmxEOh2G1WnH16mWsXbsxpeAyNWXA5KQenZ3bwDDA3NxcNLgYjdMFDy6EFCMKL4TEkMlkcQFmamoUBsMInE4nNm7cgevXRzExMSa8W4KamhrccMNBOBwWTExcx8TEZWzYsB3l5TU4duw1zM3NCu9CStzc3CyOHXsN5eWV2LBhE0KhMOz2GYyODqOvbz/KyyuEd0lgMExgeHgIa9asi+lxGUZzMxdcdu3aQ8GFEAovhCQqKyuLBpiGhmZMT49jcnIUFss0urr2YWJCj/Hx68K7JdDpynHjjTdDJmMxOWnA6OhFaDTV6Oraj5Mn38PY2NKPQUrD+Ph1nDz5LrZu3YnKymo4nQ5YLCaYzUYMDByEVqsT3iWBXj+O69eHsXlzF1g2jOnpKYyMXEVTUwuMxikKLoTEoPBCSBJyuRx79w7A73ejoaEJk5PXIkNABmzbthcGwzRGR0eEd0vAPc4NqKurwujoECYmrsLptKO39xZMTk7h5ZdfXPJ6SqR4ud0uvPzyizAYJrB9ew8kEgZzc7P48MNzcLkcKQ/xTEyMYmxsBJs2bUE4HI6csj+BxsYWmEzT6O7uTelxCFkpKLyQosSfgcJ/F4NcrkB//40IBn2oq2uE0TgOg2EMRuMYtmzh5sBcvz4svFsCiUSC7du70d3dC5NpAhMT12EwXEVHxy7s3LkPx469HjkLhZQSi8WEY8dew86de9DRsQWhUBAzMzP49NOP0dW1C3v33pBS4BgbG8HExBg2buxEOBzG9LQB09MGNDe3wmIxiR5cYv8Xxfx/JCQWhRdCFiGTydDffyNCoQDq6hphsRhgMIxjamoYnZ170rqeUWtrO2688WaEQtwCbKOjnwKQoa/vFpw8eZx6YUoE39ty8uS72LNnH+RyBRyOOZjNRkxMXMfAwEG0tbUL75bUyMhVTE4asG7dxkiPiwFG41QkuJhpqIiQBVB4IUVGLiwQnVQqRX//DWDZEFavboPNNg2DYQJ6/RA6OnbBbndiaOii8G5JlZdX4MYbb0Z1dTnGxoYwMTEMq3UK+/ffHemFeY16YYqYxWLC0aOvYceO3di37yYEg0FYLCYMDn4Ap9OB/ftvSmliLgBcufIpLBYT2tvXgWVZTE7qYTYb0draDqvVUsTBhZoNIj7aC0mRkSSsyloM+AATCvnR1taBuTkzJif1mJi4jPXru+B0+lM+DVomk2HXrl4MDBzE7KwZ4+OjuH79IoLBMPbsuQUnT76Ll19+kUJMEbFYTNHelp6ePpSVyTE3NwuTyYiRkavYu3cA+/fflFLY4E+nnpubRUtLO8LhMAyGCVitZqxZsx4WiynluTKErFQUXkiRiV1avrhIJBLs3TsAn8+JDRt2wOGwYHp6CmNjn2LNmk6Ul9eldRp0bW09BgYOQqGQYGxsCGNjw5ieHsXu3Z/Fjh0DNJRUBGKHiLq6utHXdwMCgQBmZiy4cOEMLBYTbrrplpQvjBh7OjV3gcYQ9Ppx2GxWrF27ERaLETt29FBwIWQJFF5IkSne8ILIUvi9vfvgdtvQ2dkDh8MCs9mI0dGLUKm0kdOgj6d8GrRarcHAwEEMDBwEwwQjYegK3O457Nt3J3bs2IejR2koSQyxQ0T9/QcglcpgsZjw4YfnMD09iYGBg/jMZ25LOWhwp1O/g61bd6Cysip6OvXMjAXr12+CxWJCV9eulB9PPMX9P0pWBgovpKgwjCTplYaLCcMw2L27Dx6PDQDgcFgxPn4V4+PXMDtrwZ49t8BgmEp5GAkxvTA9PT2w240YHx/F6OinCAZD2LPnZpw4wQ0lTU0ZEAqFhHcnORIKhTA1ZYj2tnR390EmK8Ps7CzM5vkhonR6W/hhIoNhHNu394BhJDCbzRgc/AAjI1cjF6g0Y+vW7UUdXOhMI1JMKLyQIlM6n+p27tyNnTt3QyqVorV1PWZmpjAxMQq9/go2btyR9jASAFRVVcUNJY2PX4PROIZduwbQ1bUP586dwssvv4hXXnmJemNyyGIx4ZVXXsLLL7+Ic+dOYcuWndizZz/8fj+sVgs++ugsrNb0hogQM0yk1VZETqcOwWicwtDQRXR17YJUKsWOHbtFPx2akFJDF2YkRcXtrkBHxxqsWtWCt99+Bffe+0VIJMWdsa1WC86efR/t7ZsxMvIpyspUqKysRn19ExQKFT788Dg2bdqS8umzPIvFhE8//QQWiwl1dc0oL69AZWUNtNpqzM6a8MknZ8EwQF/fQFoNKplnsZhw6tRxsCyLrVt3QafTIRgMwuv1wu3mziKrqKhEV9eutN/j8fHruHSJW/NFJiuD2+3CzIwVk5Pj6Onpx4cfnsHu3ftQU1MrvGtRCYfD+O1v/x3f+MZfY2hoCK+99jo0moCwGiEFQ1eVJkXH7a5GR0cLGhqa8c47fyiJ8AIAHo8HZ8++jw0benDq1KsAgPr6FtTWNqCurgWffnoONts0Dh5MfY4ELzbE1NQ0oqKiAhUV1aioqIfLNYMLF06AYYDu7j7U16+CVCoVPgSJEQqFYDJN4/z5U2BZFjt27IZarYXP54PX64HL5cTw8KcZhxa324WjR19FdXUt2ts3AGBhs83g+vWrKCuTY8eO3bh8+WP09OxNe18QAx9ennzyKQwNDeH119+g8EJEReGFFB23uw4dHY0lF14QOcifO3cKk5MTaGvbiKmpccjlGtTXN2DVqnb4/S58+OH76Ovbn3aDCEGIqapahYqKSlRUVKKysh5u9yw+/PAkQqEgZLIy9Pbuy+g5ljOLxYTTp99HMBiAVCpFVxd3Vo/P54XX64HT6cTIyBDKyyuxfXv6oQXRnpz3sGNHD1QqNdxuF6xWM0ZHR7BrVy8uXDiN1aubsHXrjpIILkgaXt6ERuMXViOkYCi8kKLjdq9CR0dDSYYXnsViwokT76Crax8uXHgXWm0NqqqqUFPTAI2mCqdOvQqJhMl4uCc2xFRU1KOyshLl5ZXQ6aohlythtxvxySfnqDcmSS/L1q07odNVIBwOwe/3w+PxwOGYw9jYcA5CCzf8tHt3PxiGgdvthtVqgck0hZ6evTh16l3099+Y0eOLKTG8vAWNxiesRkjBUHghRcftbkRHR100vNxzz5+WZMPrdrtw7Ngb8Pu9aGvbCLN5CnK5GjU1taitbUI4HMSFC8fBMMhoKAmCEKPT1UCnK4darYZGUw6drgoejxMffXQS4XAIMlkZurp2oaamFkqlquQCYarC4TC8Xg+sVgsGBz9AMBiARCLFtm27oNFo4ff74PP54PN54XA4YDCMory8Atu3d2cUKvghIpZlsX17N1QqDTweD0ymKRiNk+jo2IqPP/4ACoUCBw7cktHfWWyhUAi/+91/4PDhv8KVK1covBDRFW14cbmSn3FSDK+N5Jfb3YKOjqpIePljyYYX3vj4dXz00Xm0t3fCYjHCZjNh1ao2VFVVo66uFR7PXFZDSYiEmOHhIZhM0wiFQqioqEN5eQVUKjW02nKo1To4HHZcunQeoRB36nZZmRzbtu0s+TATG1Y+/vgCAgFuOEMqlaGzcxt0unIEg8FoYHE6nZiYGIFEIkVFRSW2bt2e1fseO0Tk9XowO2vH8PAQQqEg+vtvxJkz76OrqzvtydrFJDa8DA0N4Y03jkGj8QqrkWWmmNvhogwvPl8ZdDodpFJp9IAaDocRCoXgdrvh8/lEf40kf9zuNejoKF824QWR02XPnj2Bjo7dGB+/DKNRD52uBlVV1aiqqoNWW4VTp17LaigJMUMkY2Mj0SBTXb0aOp0u0iNTAZVKg3A4jNlZK4aGPiq5MLNYWOno2Aqtljt2BIPBSC+LFy6XC2Njw9HA0tGxOauhtNghop6efgCAx+PG9PQkTKZpdHXtQlVVNT744DR27+5P+VpHxSoxvLwNjcYjrEaWCZeLgUKhgFqtTmiHg8Eg7Ha76G1w0YUXn68MlZWVUKvVwk1RPp8PVqsVCgXNdl+O3O512LhRg4aGZrz77vIIL4gsVHbu3CnMzFjR3r4Zly+fBwBUVa1CdXUNamsbEQoF8eGH7+Xk9OdkQaaurhlqtRoKhQIKhQoqlRpyuQosG8bs7ExCmNm0aQu0Wh3Uag0UCiXKysqET5NXgUAAPp8XbrcLTqcDly9fTBJWyiGVShAKhRAI+BEIBBAI+OH1enH9+pWcBRYIQktXVzdUKjU8HjdMJiOMxkmEQkH09d2AEyfeRmtrOzo7t5bkMJFQYnh5BxqNW1iNLAM+XxlqamqgUCiEm6Lm5uZEDzBFFV4CAQUqKyuhVCqFmxL4fD4YjUbRXivJH49nIzZsUMaElz+BVCoTVitZFosJFy6ch8vlQHv7RoyMXAaA6FBSbW0LvF4HLlzITYhBTJAxGMZhtVrg9XqgVldBrVZDpVIJwowS4XAIc3M2DA0NIhwOg2XDABgwDCCRSCGTSXHw4G2Qyxc+wGXC7/fh6NFXEQyGEA6HIists5BIJGAYCTZu3AKdrgJSqQTBYDAaVAKBALxeLzweN8zmScjlcmi15Vi/viPrwAJBaNm+nbtgotfrgd0+g9HRawiFgti5cw8uXDiDsrIy7NmzvM70CoWC+N3v/hNPPPENXLlyhcLLMuV216K+XrZocOGJHWCKJry43bWoq5OmFFx4RqMRMhmNuy43Hs9mbNggQ0NDE95991XcffefQCZbPuGFx8+XCAYDaG3dAKNRH1ncrgo6XQWqq1fD63Xhww+Pg2GyG06KxQ+7zM7OwWAYjQszGo0GKpUKcrkcMlkZysrKIJPJUVYmB8AgHOaGYrxeN65d+xQsy0a+wpHvSPGK4AwYhgHAgmEkkEi42wzDoL29A0qlCnK5AlKpFAzD9VqFQqHIFxda+LBisUxFw8qmTdug0ahzNuwVH1q406q9Xu606tlZO6amJrBly04MDp5b1qenB4NB/P73fHgZwhtvHIdGQxcLXW48Himam5uFxQsSM8AUTXhxuRi0trYKixcl5htH8sfj2YYNG5hlH154/GnVPT2fwenTrwMAdLoaVFRUQqcrR1VVA/x+Hy5cOJ71nJhkYsPM9LQedvsM3G43AgE/WJZFbW0TFAouwMhkspivMshkskj4kIBhGITDLEKhAAKBAPx+H/x+H0ZGLqOv76ZIYGGjPThc4OGul8MHoNiAEgzy3wPw+wMwGK6DYRhIpTIoFEpoNFps3NgJjUaTs7DCEw4PxYYWm20GZvMUZDI5tm/vxpkz75Xk6c/p4MPLX/7lk7hy5QrefPM9aDROYTVSwtzuWjQ1pfd/JGYbTOGFFB2PZyc2bAiivr4Zx4+/irvv/gJkssLOtSg0t9uFt99+A4GAHxs3bsflyxcAAFptDcrLK6DT6VBVVY9AIIAPP3wPEgmTt/VbWJZFIOCH2+2G3T4Du90Gh2MOLpcTfr8PochFIauqGiCTlUEq5cKLRMJN7OO+GDAMF2iGhy9i7dpNwqdBOBxGOMyFFu5nbjKg2WwAAEilUpSVySGXK6BUqtDU1IzKymqo1WqUlckjPTe5ww+t8evBbNu2CyoVt4Cdx+PG7KwdBsMYJBIJenr24ty5kygrKyvZ05/TEQwG8PvfvxgNL2+99T7UaoewGilhmbTBDocDNptNlDa4pMOLmG8cyR+PZzc2bPBGw8tdd32h4BNFxWKJWQG2s7MbFy+ejW5btWoNyst1qKysQygUwkcfnYiu37Jr1568BJlYoVAIfr8PLpcTDsccPB53ZDiH6yUJh0Mxt7lhnmAwCDZyJWKGYSCTySCVSiPfuR4cfg4Nf1ulUkOnK4dGo40OHeULH1g++OBMdD2YrVt3Rk97tlrNsFiMCIVCkEplWLt2Ay5d+mhZDxElEwgE8PLLL+Lxxw/j6tWreOutE1Cr54TVSAnLpA12Op2YmZkRpQ0u6fAi5htH8sfj2Yv1651oaGjC8eOv4a67Ph+Zc7FycCHmBIJBP7Zu7cPMzDT0+hEAQENDK3S6clRUVEfWb7Hhk0/OFjTIlLJkgWXz5i6Ul1dEL8hotZowPW1AMBiKbKvE6dPvrrjQwgsE/Hj55f+Hxx8/jCtXruDo0VNQq1O/Ujopfpm0wS6XC1arVZQ2uKTDi5hvHMkfr3cA69bZV3R44VksJpw5cyI6/6StbSNGR4cAIGb9Fg10ukooFFo4HBZ88sk5CjICwsAilUqxefP2aGDhF7CzWs2wWs0IBoPYsmUHLl78EAwDaDRa7NjRs+JCC28+vDyBK1eu4ujR01Cr7cJqpIRl0ga73W5YLBZR2uCSDi9ivnEkf7zem7BunQX19U14773XcOedn4dcvjLDCy+28Q0EAmhtXYexsavR7fX1LdBoNFCrtdDpqiCXKzE3Z8HFi9yKuivl0gC8ZJcIkEql2LJlB3S6CoRCfGDxwel0wmg0wOt1g2EYbNvWjY8/Pg+ZTIZdu3op/AHw+/145ZX/h8ceewJXr17F0aNnoFbbhNVICSu1NpjCCyk6Xu/NWLduKhJeXseddx7K+XoipYw/xToUCqK7+wAslilcv/4pEJngy/fGaDRaaLWVkMsVsNvN0SCDElpNN1WLrbq7Zct26HSVCIdD0R4Wr9cLp3MOU1MTYBgJOju7oNXqcO7c+5DJZOjtzfxSDcuR3+/DK6+8hK9//S9x9epVHDt2Dmr1jLAaKWGZtMEejwdms1mUNrikw4uYbxzJH6/3DqxbNx4NL3fccSilRZNWmtjJvQDQ1dWHmRkLxsevAADKy2tRXl4RWVFXBZVKA4VCteClATZv3pbXs3lyRXg21KVLHyesuqvTcavuBoOh6EJ2Pp8Pc3OzsFimoVSqUFNTh9raOnzwwWkAgFqtxc6dK3doaDE+nw9/+ENseDkPtdoqrEZKWCZtsNfrhclkEqUNLunwIuYbR/LH670Xa9deQ319I95//w3cccfnoFCkvnjhSiOcz8GywNq1nbh27WK0jlZbE128TaHgTj1WKrkl/8PhUOTSAIMIhULRxePKyuTo6NhcVJcHGBq6FAkqDFiWhVQqjYYViST+EgF+PxdYuGsOTQAAZDIZtm3rxkcfcWdxqdUabN26g4aGluDzefGHP/wGjz76OIaHh3Hs2AWo1WZhNVLCSq0NpvBCio7P9ydob78cDS+33/65tFZeXsmEQYYbEtkBp9MRneiLaJjhVtPlLg2ghFLJXRqA69nwweGwY3j4UnQdlmK4PMC6dZug05VHe4a4SwT4Ey4RYDIZIJOVQaFQora2HpWVNfjkk/MIh8M0kTkDXq8Xf/zjb/C1rz2G4eFhvP32R1CrTcJqpIRl0gaLeZmekg4vYr5xJH98vvvR3v4R6uubIuHlXiiVKmE1sgQ+yFy4cDbSI8Mtxd/Wtj56PSWeTseFGYVCGV09t6yM/86trsuyTGRpfi4gZH95gMhPkcXs+EsErF3bEQlSisjCd4iutst9haK3/X4f3G4urMTauHELRkaGEA6HwTAMlEo1tm2jHpZMeb0e/PGPv40JL4NQq43CaqSElVobTOGFFB2f72G0t59BXV0jTpx4E7fddi9UKgov2Vjo7Jvu7hswNTUed+ZSrMrKeigUiui1jmIvDSCVcivqxl4egBty4oad+MXpzpx5B729B6KPyYUWBiwbinyfX2mXZdnoSrvzQSUIv5/rXTEa9fMvLsa6dR2orW3A+fMno6eJr6Szq/LN4/Hg1Vd/i0ce+TqGh4fxzjsXoVZPCauREpZJG+z3+zE9PS1KG1zS4UXMN47kj8/3KNaseR/19atx4sRbuO22e6BSqYXVSBb4XpmLFwfh8XAX2ONXkd25cx9crjnY7VZMTo4J7xpVVdUQczkAafQyAVwvijTaAzM2dhVr1myMhBoO31vDXxaA/2LZMMzmyZhnidfS0o7KymoolSpcuHAaoVAw2pOiUqmxZct26l3JA4/HjVdf/R3+4i8exbVr1/DOO5egVi/8dyKlp9TaYAovpOj4/YfR1nYUdXWNOHnyLdx6693RT/T8p/bk3+PLEPMpP5bwLBrhbaGltucS31uxFGG9+Nv88E3sNq6AH9aJ/c7/en6/H3Nzsxgevgq73RKZ5xKvqakNBsMY6upWwWyeFm7Oifr6RphMk9HnEpJIJKisrMb69R0oL6+IrgE0/7vQfpH8dnr7Rfx3Fq+99nv8+Z9/DdeuXcO77w5BrU7eC0ZKUyZtcCAQwNTUlChtcEmHFzHfOJI/fv+3EAj8UFhMCCkSDNMCtXpcWExKWKm1wRReSNHx+/8/VFb+KyQSBkbjBNrbN8VdpVj4xX2q5j5Zx95G5NNx7M+x3xM/oc9/ko7/lF64T9iEJCPsURH2oiTvLeG/cxVjv/O9Liw73wPDlyd+cXOSrl+/jJ6efvj9Xly6NAaFwhL7AkiJK7U2mMILKTosOwaP50bodC7MzVmwenWbsAohpMCmpsawalUzTCY7lMpPwDD0f7mcZNIGB4NBTE5OitIGl3R4EfONI/nFsmMIBP4JgBeAByzrBxAA4APgB8sGIrcDAIIAgmBZ7vv8VyhSHor8zH+FBbf5T57h6M9cHW7VVkKKhyxmH+XF9gzO9yrOfwlvz/dYciQJ2+fLYr9LwDBOKJUXKLgsQ6XWBlN4IYQQQla4TNrgUCgEg8EgShvscjEo2QUQaC4CIYQQsjKVbHghhBBCyMpE4YUQQgghaRF79KNkw4vYbxwhhBBCxFGy4YUQQgghKxOFF0IIIYSkRezRj5INL2K/cYQQQggRR8mGF0IIIYSsTBReCCGEEFJSKLwQQgghpKRQeCGEEEJISaHwQgghhJCSQuGFEEIIIWkR+4zfkg0vYr9xhBBCCBFHyYYXQgghhKxMFF4IIYQQUlIovBBCCCGkpFB4IYQQQkhJofBCCCGEkJJC4YUQQgghJYXCCyGEEEJKCoUXQgghhJQUCi+EEEIIKSkUXgghhBBSUii8EEIIIaSkUHghhBBCSEmh8EIIIYSQkkLhhRBCCCElhcILIYQQQkoKhRdCCCGElBQKL4QQQggpKRReCCGEEFJSKLwQQgghpKRQeCGEEEJISaHwQgghhJCSQuGFEEIIISWFwgshhBBCSgqFF0IIIYSUFAovhBBCCCkpFF4IIYQQUlIovBBCCCGkpFB4IYQQQkhJofBCCCGEkJJC4YUQQgghJYXCCyGEEEJKCoUXQgghhJQUCi+EEEIIKSkUXgghhBBSUii8EEIIIaSkUHghhBBCSEmh8EIIIYSQkkLhhRBCCCElhcILIYQQQkoKhRdCCCGElBQKL4QQQggpKRReCCGEEFJSmNbWVpa/MT4+Hr+1gFpbW4VFSxofH4dGE335eeNyMcKiOIV4DYQQQpafYmhfXC4m4zZYLAnh5Re/0EAiYSCRAAyDJb5z9QCujI08UjgMsCwb+c7fTv49HGbx4IOujN+4fPxhXS4GMhlQUyPBli1SrF8vQVUVg+pqCSoruR3NbmcxMxOGzcZieDiMixdDsFrDCAYLs7MRQggpPcXYvmQTXsTKDAnh5YUXtKirWzwJ5pLZzOL++50Zv3G5+EMKd6beXim2bJGipkYCmUxYO7lgELBauZ3snXeCOH8+BJ+PzcnrI4QQUrpcLgYKBYPubiluvFGWVfty+nQo52Emm/AiVmZICC+/+pUWtbWFeyEWC4svfUm88KLVSvHnfy5Pe2dais/H4vz5EF57LUBBhhBCVpjYwHLrrWXo7pZCochN2xobZn76Uz+czpCwSlqyCS9iZYaECbt8l06hFPr5eC4Xg3XrZHjuORUOHixDQ0PuggsAKBQM+vtleOYZFV58UYOnn1YiHBbplyWEEFIwWq0U3/ymEi++qMEzz6jQ3y/LWXABAJkMaGiQ4ODBMjz3nArr1smWnDuTL4Vuw/nnK/DTim8+tKjx3HNqNDTk/y1QKBjccksZ/vEf1airkwo3E0IIWSbq6qR49lkVbr21LKeBZSENDZJoeyZmiCm0hJZbrBRVCFqtFH/xFwo895waXV2FDxFr1kjwj/+oxv798hWzgxFCyErgcjHYt0+OZ59VYc2aAjZsEV1dUjz3nBoPP6woaPtSyDYci/W8MIX7nYECPZ/LxUAqleCLX5Tjvvvkws0FpVIx+OY3lQXfwQghhOSHVivFI48o8PTTyoL05i/m/vvl0fbF7a4Vbs65QrThsfjnS3iXxXoh+dTQIMFjjylwzz1lwk2iid3BCCGElCatVooHHpDjz/5M3A/Gsfj2hWWtwk05V4g2PNaKCS9arRSPPqrAzTcXT3DhUYAhhJDSpdVK8fWvK3D77Su3fcl3Gy60IsKLVivF4cMK3HBDDk8jyrFC7WCEEEJyp7xciiefVGBgYGW3L/lsw5NZMLwsFzU1Ujz1lAJ9fcW7Y/EKsYMRQgjJjeZmGZ56SoneXmpfxJIQXsRKUbnU0iLD4cNK9PQU/47FW647GCGELCdudy2+9jUFdu0q/Bmrmcpn+5KPNnwxC/a8iPVCcsXtrsUjjyiwc2fp7Fi8+++Xi3IKNyGEkNRs22bH9u2ld5zOV4DJdRu+lAXDS6nT6WZKcsfifetbSmi1pfv6CSFkudJqpfjWt5TC4pKxnD4gJ1zb6He/00KlKlyU8nhY3HNPbq5t5HbX4n/9L0/O/jiDgyH83d95EAoBgQB3PYlQiIVUyl3IsawMkEqBw4eVOb1uxeBgCEeOuOlaSIQQUiRy3b7w1797/nnvkm3Mt7+tytnzJmtfXFlc20iszJAQXn7/ey2UysK9EK+Xxd135ya8SKUSvPiiNq5OJozGMB57zA23m0FjYyMkiywhGA6HMTk5CSAMnY7Bj3+cm0sOHDnixrVrQWExIYQQEeSyfXniCTccDhaAJOU2Rq1m8X/+T37al2zCi1iZIeFdEGv8Kltudy2+9z2VsDhtg4MhPPKIGxpNPZqbmxfdqQBAIpGgubkZTU0tkMtr8cgjbgwOZneFTwD4whfoEgKEEFIM3O5aHDmS/XAR377I5bVoampJq43RaOpz1r589au5m/uSqzY8VYvMeSnwK8nR8+l0M1l1qxmNYRw65MTTT3tRXb0aCoVCWGVRDMNApVKhuno1nn7ai0OHnDAaw8JqKcvlMBQhhJDMSaVWdHfnrn1RqVRg0mz1FQpFztqXri5pVu1lvPR+j+xxz5cQXtJ8P7OWi+fLttfFaAzH9bbIZJmfYi2TydDc3IzKyiY89phbuDllCgWT1T8LIYSQ3NBomKw+TD72mBuVlU05a1/4XphsAkyuel9y0YanY8GeF7FeSDa2bbNnlSIfe8yNior6tHtbFiORSOB2M1l18d16a1lOdi5CCCGZcbtr8V/+S+ZDRoODIbjdzJLDQ+lQKBSoqKjP6gNyrnpfctGGp2PB8FJqXC4GBw5kfl0JfsfKZXDhrVq1Ct/5jifjdExDR4QQIq5shoyMxjC+8x0PVq1aJdyUNYVCkfUH5AMHSvcDckJ4EStFZaOtLeHXSEk+dyxEuviyScc0dEQIIeLKZsiI79XPZqhoMdl+QM607YyVizY8Hcum50WhYLB6dWa/xhNPuKHT1eZtx0IO0nFnp7RkkzEhhJSyO+5Q4Kc/1QiLU5LPXn2eTCaDTleLJ57I7APy6tWSjIOZ2BJafbFSVKbKy7mvdPl8LBwOFkpl5mOZqaqqqsKzz3qExSnRaLJ8gwghhGRkdpZFeXlmx+Bnn/WgqqpKWJxzSqUSDgcLny/9RU0zbT9jZduGp2vZ9LxkmhzPnw8BkKR9ulomFAoF5uZYBDNYc06ny//rI4QQkmhuLv1AAHAr5c7NsXntdeFxbZgk0qalJ5uRC7ElvOoCtOVxsn2+TMfsnn/ei8bGRmFxXkilUgAMrNb0xyU1mfVYEkIIyVKm4YU71jORY3/+NTY24vnnvcLilGTahvKybcPTtWx6XpqaMvsVAgHudOZC4JPxxYvpJ2MaNiKEEHHMzbFgM8gv3LG+MD37iCzNEQgIS1OTaRsqNtFfdbZ/27q6zH6FTIZwsrF69Wr85Cc+YfGSCnnNCEIIIfNcLhah9D9z4ic/8WH16tXC4rzKtE3LtA3lZduGZyrhVRf6hWSyY8TKdDJVOP0RnKxkmowL1OtICCFEwOsFAoH0u14K2bPPy7RNy7QN5WXbhqeraIaNQqH0d4xcKPB+lbFC7xiEEEI4gQALb2ZTSQpOrDZNtDZcWFBomYwnxsp0QlUel3ZJKhwOoyyDhYC93sx+P0IIIdkJhbiho3SVlXHH/ELKtE3LtA3lZduGZyohvBT6hWT79zWbM3uAQu9cU1NTePTR9E+by+QfhxBCSPZYNrPG/dFHFZiamhIW502mH46RRRvKK2AzCsRklJIPLxMTmT3A4cNKTE5OCovzgmVZAGFs2ZL+BBaXS1hCCCGkUDIJL9yxPhw59uff5OQkDh/ObMHVTNtQXrZteLoWDC+FniCa7ZyOoaFQRm8ed82gwuxcoVAIAIuamoS3e0kOR/5fHyGEkOQyCS/csZ6NHPvzi/9wnMl18MJhrg3NRgF+xTh8Rkm/Nc2xcJhfByV9DMPAZGLhdKa/cykUDHQ6Bt4CzMby+XwoL2cyGpOkYSNCCBHP7Gz6x2CZjDuLx+dLf3mMdHm9Xuh0mV080ulkYTKxWbXBmXQe5ILo4SXbjg/+zc/E3/6tClarVVicU8FgEC7XDH70I7VwU0quXw9Do8ns9yOEEJI5jYbF8HBmrfOPfqSGyzWDYKYLsKTIarXib/9WJSxOSaYf/mNl24ZnSvTwkm1qy6bbq6tLiq98pSyvvS/T09P4/vdVaGhI/60OBvmVGgkhhIjh4sVQRgvANTRI8P3vqzA9PS3clDM+nw9f+pIMXV3pDxkhi2kXsbK9f6bSb1FzLNtzxDUaFmfOZLBnRTzwgBy7ds3mJcCEw+GsdiyrNZzR9ZAIIYTkRjbHYf4Dcj6Gj7xeL7ZuteP22zM8zQjAmTPBrHv2s23DMyV6eMlFajt/PpTR5cB5R47IMTBgh9vtFm7KWDAYxK5dxqx2rEwTPyGEkNzItgf8gQfk2L/fltPhI7fbjd5eGx5+WJZRrz4A+HxsRleiFspFG56JzH7rHMrFL56LP8Jjjylw661zcDgcwk1p8/l86Okx44tflGe8YwHAK68Esk7FhBBCMqfRsHjllQyu7RLjsccU6O+35KQHxuFw4ODBOfzZn2XXvmT7oZ+XizY8E5n/5jmSi9OsNBoWL77oFxan7aGHFLj3Xjf0en1GKTkYDEKv1+Ozn7VlHVwGB0MYHMzBm0MIISQruTgef/3rCtx2mz3r9uWOO1y4556yrNoXAHjxRX9OPhznog3PRHa/fQ7kKrXlYudCpIvvhz9UYmZmCk6nE36/f9GVeMPhMPx+P5xOJ2ZmpvDDHyrx0EOKrHesn/3Ml5MdixBCSHY0GhY/+1n2vSYPPlgc7Uuu2kvksA1PV3bvQA7kKrXlaudCZJLVP/2TGoANNts0jEYDJiYmYDAYEA6HEQ6HYTBwZUajATbbNAAb/umf1BlPzo2Vyx2LEEJI9nJ1XBa7fUGOPxznqg1PF9Pa2hr9DcbHx/HGG7r4Gnl25UoIhw970NLSIty0pImJCajV87HP5WLw3HO5+wMjkir5tWSGhkL413/lAtJDDynQ0SFFfT0DrZbJ2RU9jcYwjhzxwOkUaY8ghBCSlFYrxXPPZbb0RTKFbl8QCWFHjrjjwovbLcm4DX7+eRU2bsxdm5uKm292iB9ePv00hKee8qK5uVm4aUl6vR4qVXwjn+udq9COHHHj2rX0x0MJIYTk37p1Mjz3XGaLjoptoQ/HHo804zb4H/5Bic7OwocX0Vv4XHc5OZ0h/P3f537NlkJ44QV/TrolCSGE5Mfg4HwPSan5+7/3JgSXbOW6DU/VsgsvKNGd64UX/PjDH+jUaEIIKWYaDYtf/tJfkm1MPj4c56MNT8WyDC+ltnPxwcVoFGnaNiGEkJQxTE1JtjH5+HCcjzY8FUUQXnL/ZqKEAgy/UzmdobzsWIQQQnJLrbZE25hcneWaL7FtTD7kqw1fiujhJYO1elJW7DtXvncqQggh+aPRsPjFL4r3Q3Ih2ph8tuGLWdbhBUW8c/3yl/nfqQghhORXsfbyF6qNyXcbvpAiCC/573Lid64jR9xFMa/kl7/0449/zP9ORQghJP+KKcBwp0O78bOfaQvSxhSiDU9G9PASCAAMwwiLU5LO/TQaFteuBXHkiCcvM65TRcGFEEKWn2IIMNwCdB5cuxaEWm0Rbl5QOm1pLIZhEMjumpUZEz28FLrLyenkVhc8csRd0BAzOBjCF77gLFgaJoQQUlixvfxitC/f/Kaq4O1Lodtw3ooLL4jrhcl/iIndqUKhcFppmBBCSGlZae2LGG04iiG8+HzijJchyU524kQwq9cTDgNzcyyGh8N45ZUAjhxxi7pTEUIIEYewfXnllQCGh8OYm2OzuhKzz8fixAnucYuhfcmmzcyG6Nc2euEFP37+8yCampqEm5ZkMBigVOYu9rlcDBQKBt3dUnR2SqHVMtDp+C+grIwbFwwEWDgcgMPBwuFg4XSymJ4OY2goBJOJux0OczsvIYQQ4nJxF1jUahnU1zPo6JBi1SpJWu3Mp5+GcP58CD4fm9P2xeuVZdwGf/nLMjzwgFy4Ka9EuzBjMAhYrWFcvBjCj3/sg9stRWNjo7DakiYnJ8GyiX/AZGWxltrOS7UeKR65/IfOJ5crswlypLjR/kfyKZWJtUvVSbadYZiM22C1OoQnnlBgyxYpamokkMmEtXKv4OFlcDCEZ5/1YG6OBcAAkKC2thYKhUJYlZSoxQJf7LZkPy9WFvtd+HNsmc/ng9frBcvm9pNJLrhcDBiGgVKpjO7zDMOV8V98WTrfF/s52e2FypYD2v8WRvsfyQefzweLxQIgDIBFeTmD735Xha6u/F1pumDhZXAwhO99zwO3m0FVVRUUCgWkUintwCQvWJaF1+uFzWaDQiHSeXwxuO5iCSoqKqDVamm/X+ZYloXD4YDdbgfD1Ig6H4Hn85WhqqoKSqWS9j+SFyzLIhQKwefzwWazQa1m8cwz+QkxN9/syO+EXaMxjH/7Nz+eftoLjaYezc3N0Gg0kMlk9A9E8oZhGKhUKtTX18PnKxNuLjiZTIbq6mrodDra71cAhmFQXl6OyspKsKxVuLngfL4y1NfXQ6VS0f5H8oZhGMhkMmg0mkhbX4+nn/biX/4lP+ve5C28GI1h/OY3Abz2WiWam5tpaIgUnEwmQ1VVlajj+4GAAtXV1VCr1cJNZJnjA4yY+5/bXYuqqirICjERgZAYCoUCzc3NeOutKvzoR17h5qzlJbwYjWG89FIAJ07QfBYiLjG7yRlGh8rKSiiVSuEmskKIH2BmaP8jolIoFDh3ri7nASYv4eXNN4N47z1K+0R8TGSCohgCgYBoz02Kh5jHQSZmIi4hYpHJZDh9ujqnQ0g5Dy+DgyH8/OcB6nEhRUOj0YjyyTcYDMadwUJWJokk54fZlASDyoxOfyUkHxQKBX7962DOVhzO6X+V0RjGd77jwapVq4SbCFlxwuEwwtkspUlIFnw+HwJiXTWPkCRWrVqF73zHA6Mx++NiTsPLE0+4odPVitpNSoiQy+USZc0NlmURFOvCH6RoiBVgNRoWc3NzwmJCRCOTyaDT1eKJJ9zCTWnLWXjx+bgljGmMnxQTfs0XsdAnXxIK5aabPBP8gnmEFAulUgmHg836mkg5Cy/nz4cASGhyGCkqYh68NRoWLpdLWExWGLfbLUrPH4ogvBMixGUESSQzZC4hvGR6nH/+eS9NDiNFJRgMwmazidZwIDLvQKxhAyK+cDgMny93Z1ikS6NhYbPZaPiSFJXGxkY8/3xmoZrPKAnhJVOBgHiz6gkR8vl8MJlMol8eQKNhodfrYTQaRW3ESGH5fD7o9XoYDB5RwzMAKBQBmEwm2v9I0ZBIJMh2RD3h2kavv65DJiM/hw45UV3dIiwmpKDC4XDkauNVRXFNmVguFwOFQhFdOE/4hSQXvVvq+2I/J7u9UBnJDdr/aP8jqZmZmcBLL2mFxUtiWeCWW5JcmPG113TIpAPl3nudqK0tbHjhDhKJn2qSlcVaajsv1XqkeBTLhfAWI8aaM6QwaP8j+ZRK8FuqTrLtDMMUfNqHxTKB3/42/fASDgO33prD8CJGz8vExAT+7d/UkEgYMAyir1siQbT3KPZnhkn8mbvNf5qIr5PsPjw+1yz2nfuZjf6cuG3+Z/6Lnx4RDvO3WTz4oDin+hJCyErmcjH4xS80y76N+fKX3WhpKWz7nWnPS87Dy5/+qRPl5YX75bnuWQN+/3st5HLh1uXDbGZx//1OCi+EEFJgLheDF17Qoq4uJlUsM34/cPfdTjQ2NhV03urc3AT+4z8yDy8Jr5RPa+kqKyvsYkzBYBASCZtR0Coly/33I4SQYrbcj8ESCSCRFHZBzXA4jLIyYWlq+IySsz/L4cNKTE5OCovzxu/3Q6djsNwX843tRiSEEFJYy/0YLJMBOh0Dv98v3JQ3k5OTOHw4uwVtE8JLpj0v3d1SAOGCTXK12+347ndVwuJlZ7mnfkIIKWYr4Rj83e+qYLfbhcV5wWWEcCQzpC9pz0uyWcipUigY6HRMQVZz9Pl8UKtZdHVl9suXkiz+JIQQQrK0Eo7BXV1SqNVsQdYC8nq90OkYKBSZv7EMwyT2vGTjxz9Ww+Gw5H3szGw245lnln+vCwBIl38+I4SQorVSjsHPPKOC2WwWFudUMBiEw2HBj3+sFm5KW0J4yWbUp6FBgu9/X4Xp6Wnhppzx+Xy47z7Ziuh1wQpJ/YQQUqxWyjG4q0uKr3ylLK+jJ9PT0/j+91VoaEiIHilLOmwUuyFT/BuQj+4nr9eLrVttuOOODKcpl6CV8o9DCCHFaCUdgx94QI5du2bzEmDC4XBOOh7yFl4QeQP278/txcDcbjf27LHh4YfLskptpWYlTBYjhJBitdKOwUeOyDEwYIfb7RZuylgwGMSuXcacdDwsGF5y5bHHFOjvt+SkB8bhcODgwTncd598RQUXZDmJmhBCSHZW4jH4sccUuPXWOTgcDuGmtPl8PvT0mPHFL+a2/U7ySDnoeon4+tcVuO02O/R6fUYhhr8y6x13uHDPPSurx4W30lI/IYQUk5V6DH7oIQXuvdeddfv92c/achxcuIyS8Gi5GDaK9eCDcvzwh0q4XCbo9fqUVuENh8PQ6/VwuUz44Q+VeOghRQ5/8dKyAkM/IYQUjZV8DH7ggeJrv/mMEndto4mJCfz2txqoVPn5aw0OhvA//6cXwSCLYBAIhQB+WoxMxp2SJpMBMhmDv/kbZdYTe5aDYBC4/XYHXduIEEIKzOVi8Mc/6pb9Su6pKJb22+Nhce+9rsTw8pvfaKBW5ye8kPRReCGEEHFQeCk+bjeLz33OlbsVdgkhhBBC8i3pCru5nvNCskN/D0IIEQ8dg4vLgqdK0x+quKQwP4oQQkie0DG4uCwYXkhxKdRVugkhhCSiY3BxSggv9HcqLpT6CSFEPHQMLi4L9rzQH6q4UJgkhBDx0DG4uPAZJSG8kOJC/ziEECIeOgYXp4TwQn+o4hIKCUsIIYQUCh2Di0vSYSOGYWjYqMhQmCSEEPHQMbi4hMMLrPNCiguFSUIIEQ8dg4tTQnihP1RxodRPCCHioWNwcVlwwi79oYoLhUlCCBEPHYOLC59R4i7MaDAY8LOfKSGRMGAYQBKJNhLJ/GXBY39mmMSfudtcYXzZfL3Y74v9XAxCocTfITbg8T8n+879zEZ/Ttw2/zP/xf+jhMP8bRYPPuiiCzMSQkiBuVwMfvELDbWJMYqhTfzqV73x4WVycjLpaoLJymIttZ2Xaj1CCCGElLZULva8VJ1k2xmGiQ8vhBBCCCHFLmHOCyGEEEJIMfv/Ael3zoBkU8AuAAAAAElFTkSuQmCC;" vertex="1" parent="1">
          <mxGeometry x="450" y="300" width="229.59" height="230" as="geometry" />
        </mxCell>
      </root>
    </mxGraphModel>
  </diagram>
</mxfile>
